<?xml version="1.0" standalone="no"?>
<!DOCTYPE svg PUBLIC "-//W3C//DTD SVG 20010904//EN"
 "http://www.w3.org/TR/2001/REC-SVG-20010904/DTD/svg10.dtd">
<svg version="1.0" xmlns="http://www.w3.org/2000/svg"
 width="700.000000pt" height="700.000000pt" viewBox="0 0 700.000000 700.000000"
 preserveAspectRatio="xMidYMid meet">
<metadata>
Created by potrace 1.14, written by Peter Selinger 2001-2017
</metadata>
<g transform="translate(0.000000,700.000000) scale(0.100000,-0.100000)"
fill="#000000" stroke="none">
<path d="M1129 5413 c0 -10 -2 -25 -3 -33 -3 -15 -15 -124 -22 -195 -2 -22 -5
-58 -8 -80 -3 -22 -8 -71 -11 -110 -3 -38 -8 -77 -11 -86 -6 -22 5 -30 130
-86 l110 -49 80 46 c45 25 123 68 174 95 l94 50 -6 38 c-7 40 -96 410 -101
415 -1 1 -97 5 -214 8 -198 4 -211 4 -212 -13z"/>
<path d="M2087 5344 c-93 -144 -151 -283 -196 -465 -52 -216 -59 -465 -17
-654 1 -5 10 -44 20 -85 l18 -75 -64 -105 c-86 -142 -136 -259 -153 -355 -14
-80 -39 -153 -95 -275 -91 -200 -108 -272 -89 -377 14 -73 72 -184 129 -246
87 -95 179 -147 346 -195 l97 -28 1 -67 c1 -38 -1 -72 -4 -78 -5 -7 -151 -43
-217 -53 -7 -1 -15 -5 -18 -8 -6 -6 -7 -217 -1 -253 12 -82 49 -166 116 -265
134 -197 282 -250 390 -140 30 30 33 31 93 25 34 -3 73 -8 87 -10 164 -23 812
-23 952 0 13 2 50 6 83 9 57 5 229 29 307 42 31 5 43 2 75 -23 174 -135 396
-26 551 269 21 40 42 85 45 99 7 28 20 33 117 44 25 3 56 7 70 10 37 7 132 21
210 30 25 3 56 8 70 10 14 2 54 7 90 10 88 8 132 14 135 17 2 2 5 29 8 60 3
41 1 58 -7 58 -12 0 -52 207 -42 217 3 3 56 20 118 39 215 63 413 126 422 134
9 9 -28 196 -67 343 l-24 87 21 1 c12 0 29 2 39 4 10 2 51 6 90 9 40 4 126 13
192 22 66 8 140 17 165 20 25 3 56 7 70 9 14 2 50 7 80 10 30 3 66 8 80 10 14
2 48 6 75 10 28 3 59 8 70 10 11 2 24 4 28 4 14 1 -9 159 -44 301 -4 19 -12
55 -18 80 -11 51 -120 433 -125 437 -5 5 -201 -24 -290 -42 -317 -66 -798
-273 -957 -412 -41 -36 -110 -123 -105 -131 2 -4 7 -25 10 -47 14 -88 68 -229
154 -402 l40 -82 -81 -44 c-45 -24 -113 -61 -152 -82 -38 -20 -112 -60 -163
-87 -51 -27 -92 -53 -90 -58 3 -7 112 -133 134 -154 12 -12 6 -53 -10 -64 -35
-22 -231 -89 -234 -78 -1 6 -12 70 -25 141 l-22 130 56 46 c61 52 144 159 176
229 29 63 63 176 71 235 14 101 7 328 -13 425 -18 92 -25 123 -44 185 -11 39
-29 97 -41 129 -11 33 -19 60 -18 61 2 1 93 37 203 80 291 113 469 208 604
320 19 17 113 125 139 160 16 22 52 93 52 103 0 12 -137 56 -235 76 -169 34
-396 39 -560 11 -209 -36 -371 -89 -552 -180 l-122 -62 -43 126 c-23 69 -43
128 -43 131 -10 37 -89 122 -234 254 -56 50 -135 91 -153 79 -6 -3 -8 -2 -5 4
3 5 -20 22 -51 37 -31 16 -85 51 -119 78 -35 27 -66 47 -70 45 -5 -3 -37 -8
-73 -12 -60 -6 -249 -36 -311 -49 -71 -15 -212 -61 -288 -93 -188 -81 -349
-222 -418 -366 -8 -17 -26 -52 -39 -77 -20 -40 -23 -42 -25 -20 -4 55 -7 78
-14 140 -4 36 -8 67 -10 70 -2 3 -6 28 -9 55 -11 86 -56 254 -91 335 -34 81
-108 202 -144 234 -20 18 -21 17 -64 -50z"/>
</g>
</svg>
