<?xml version="1.0" encoding="UTF-8"?>
<!DOCTYPE svg PUBLIC "-//W3C//DTD SVG 1.1//EN" "http://www.w3.org/Graphics/SVG/1.1/DTD/svg11.dtd">
<!--Generated by Origin-->
<svg xmlns="http://www.w3.org/2000/svg" xmlns:xlink="http://www.w3.org/1999/xlink" viewBox="0,0 1030,789" width="8.583333in" height="6.575000in">
	<svg xmlns="http://www.w3.org/2000/svg" xmlns:xlink="http://www.w3.org/1999/xlink" viewBox="0,0 6432.99,4923.96" width="1028.99" height="786.999" x="0.00012207" y="0.00012207" preserveAspectRatio="none">
		<defs>
			<mask id="Cp_1">
				<rect x="1151" y="571" width="4387" height="3535" fill="white"/>
			</mask>
		</defs>
		<g mask="url(#Cp_1)">
			<rect x="0" y="0" width="6433" height="4924" visibility="hidden" fill="none" opacity="0"/>
			<polyline points="1151,2046 1320,2071 1488,2117 1657,2152 1826,2099 1994,2183 2163,2269 2332,2362 2501,2473 2669,2452 2838,2428 3007,2417 3175,2418 3344,2448 3513,2489 3681,2553 3850,2631 4019,2706 4187,2814 4356,3207 4525,3359 4694,3458 4862,3496 5031,3573 5200,3737 5368,3841 5537,3932" style="stroke: #6699CC;stroke-width: 11;stroke-linecap:round;stroke-linejoin:round" fill="none"/>
		</g>
		<polyline points="1151,4105 5537,4105" style="stroke: black;stroke-width: 13;stroke-linecap:square;stroke-linejoin:round" fill="none"/>
		<polyline points="2332,4105 2332,4139" style="stroke: black;stroke-width: 13;stroke-linecap:butt;stroke-linejoin:round" fill="none"/>
		<polyline points="4694,4105 4694,4139" style="stroke: black;stroke-width: 13;stroke-linecap:butt;stroke-linejoin:round" fill="none"/>
		<polyline points="1151,4105 1151,4174" style="stroke: black;stroke-width: 13;stroke-linecap:butt;stroke-linejoin:round" fill="none"/>
		<polyline points="3513,4105 3513,4174" style="stroke: black;stroke-width: 13;stroke-linecap:butt;stroke-linejoin:round" fill="none"/>
		<polyline points="1151,4105 1151,571" style="stroke: black;stroke-width: 13;stroke-linecap:square;stroke-linejoin:round" fill="none"/>
		<polyline points="1151,3222 1117,3222" style="stroke: black;stroke-width: 13;stroke-linecap:butt;stroke-linejoin:round" fill="none"/>
		<polyline points="1151,1455 1117,1455" style="stroke: black;stroke-width: 13;stroke-linecap:butt;stroke-linejoin:round" fill="none"/>
		<polyline points="1151,4105 1082,4105" style="stroke: black;stroke-width: 13;stroke-linecap:butt;stroke-linejoin:round" fill="none"/>
		<polyline points="1151,2338 1082,2338" style="stroke: black;stroke-width: 13;stroke-linecap:butt;stroke-linejoin:round" fill="none"/>
		<polyline points="1151,571 1082,571" style="stroke: black;stroke-width: 13;stroke-linecap:butt;stroke-linejoin:round" fill="none"/>
		<text x="974" dominant-baseline="auto" y="4323" fill="black" font-family="宋体,'MS PGothic',SimSun" font-size="117" font-weight="400">
			<tspan x="974" style="white-space:pre;font-kerning:none" xml:space="preserve">Jan 23</tspan>
		</text>
		<text x="3366" dominant-baseline="auto" y="4323" fill="black" font-family="宋体,'MS PGothic',SimSun" font-size="117" font-weight="400">
			<tspan x="3366" style="white-space:pre;font-kerning:none" xml:space="preserve">Feb 6</tspan>
		</text>
		<text x="798" dominant-baseline="auto" y="4153" fill="black" font-family="宋体,'MS PGothic',SimSun" font-size="117" font-weight="400">
			<tspan x="798" style="font-kerning:none">0.00</tspan>
		</text>
		<text x="798" dominant-baseline="auto" y="2386" fill="black" font-family="宋体,'MS PGothic',SimSun" font-size="117" font-weight="400">
			<tspan x="798" style="font-kerning:none">0.25</tspan>
		</text>
		<text x="798" dominant-baseline="auto" y="619" fill="black" font-family="宋体,'MS PGothic',SimSun" font-size="117" font-weight="400">
			<tspan x="798" style="font-kerning:none">0.50</tspan>
		</text>
		<text x="2481" dominant-baseline="auto" y="4486" fill="black" font-family="宋体,'MS PGothic',SimSun" font-size="100" font-weight="400">
			<tspan x="2481" style="white-space:pre;font-kerning:none" xml:space="preserve">Fig. 4. Hubei: Estimates of </tspan>
		</text>
		<text x="3881" dominant-baseline="auto" y="4486" fill="black" font-family="Times New Roman,'MS PGothic',SimSun" font-size="100" font-weight="400">
			<tspan x="3881" style="white-space:pre;font-kerning:none" xml:space="preserve">     β</tspan>
		</text>
		<text x="4057" dominant-baseline="auto" y="4486" fill="black" font-family="宋体,'MS PGothic',SimSun" font-size="100" font-weight="400">
			<tspan x="4057" style="font-kerning:none">(t)</tspan>
		</text>
		<polyline points="4787,810 5021,810" style="stroke: #6699CC;stroke-width: 11;stroke-linecap:round;stroke-linejoin:round" fill="none"/>
		<text x="5021" dominant-baseline="auto" y="853" fill="black" font-family="宋体,'MS PGothic',SimSun" font-size="117" font-weight="400">
			<tspan x="5021" style="white-space:pre;font-kerning:none" xml:space="preserve"> </tspan>
		</text>
		<text x="5080" dominant-baseline="auto" y="853" fill="black" font-family="Times New Roman,'MS PGothic',SimSun" font-size="117" font-weight="400">
			<tspan x="5080" style="font-kerning:none">β</tspan>
		</text>
		<text x="5140" dominant-baseline="auto" y="853" fill="black" font-family="宋体,'MS PGothic',SimSun" font-size="117" font-weight="400">
			<tspan x="5140" style="font-kerning:none">(t)</tspan>
		</text>
	</svg>
</svg>

