<?xml version="1.0" encoding="UTF-8"?>
<!DOCTYPE svg PUBLIC "-//W3C//DTD SVG 1.1//EN" "http://www.w3.org/Graphics/SVG/1.1/DTD/svg11.dtd">
<!--Generated by Origin-->
<svg xmlns="http://www.w3.org/2000/svg" xmlns:xlink="http://www.w3.org/1999/xlink" viewBox="383,177 647,479" width="5.391667in" height="3.991667in">
	<svg xmlns="http://www.w3.org/2000/svg" xmlns:xlink="http://www.w3.org/1999/xlink" viewBox="2393.97,1105.99 4038.02,2987.97" width="645.999" height="477.999" x="382" y="176" preserveAspectRatio="none">
		<polyline points="2883,1429 6213,1429" style="stroke: black;stroke-width: 3;stroke-linecap:butt;stroke-linejoin:round" fill="none"/>
		<defs>
			<mask id="Cp_1">
				<rect x="2883" y="1119" width="3331" height="2687" fill="white"/>
			</mask>
		</defs>
		<g mask="url(#Cp_1)">
			<rect x="2394" y="1106" width="4038" height="2988" visibility="hidden" fill="none" opacity="0"/>
			<polyline points="2883,3796 2890,3794" style="stroke: #515151;stroke-width: 6;stroke-linecap:round;stroke-linejoin:round" fill="none"/>
			<polyline points="2917,3781 2923,3778" style="stroke: #515151;stroke-width: 6;stroke-linecap:round;stroke-linejoin:round" fill="none"/>
			<polyline points="2942,3752 2945,3746" style="stroke: #515151;stroke-width: 6;stroke-linecap:round;stroke-linejoin:round" fill="none"/>
			<polyline points="2965,3735 2969,3730" style="stroke: #515151;stroke-width: 6;stroke-linecap:round;stroke-linejoin:round" fill="none"/>
			<polyline points="2985,3704 2989,3698" style="stroke: #515151;stroke-width: 6;stroke-linecap:round;stroke-linejoin:round" fill="none"/>
			<polyline points="3003,3670 3005,3663" style="stroke: #515151;stroke-width: 6;stroke-linecap:round;stroke-linejoin:round" fill="none"/>
			<polyline points="3012,3635 3013,3628" style="stroke: #515151;stroke-width: 6;stroke-linecap:round;stroke-linejoin:round" fill="none"/>
			<polyline points="3023,3601 3025,3594" style="stroke: #515151;stroke-width: 6;stroke-linecap:round;stroke-linejoin:round" fill="none"/>
			<polyline points="3036,3568 3039,3561" style="stroke: #515151;stroke-width: 6;stroke-linecap:round;stroke-linejoin:round" fill="none"/>
			<polyline points="3049,3534 3051,3527" style="stroke: #515151;stroke-width: 6;stroke-linecap:round;stroke-linejoin:round" fill="none"/>
			<polyline points="3061,3500 3063,3493" style="stroke: #515151;stroke-width: 6;stroke-linecap:round;stroke-linejoin:round" fill="none"/>
			<polyline points="3073,3465 3074,3459" style="stroke: #515151;stroke-width: 6;stroke-linecap:round;stroke-linejoin:round" fill="none"/>
			<polyline points="3083,3431 3085,3424" style="stroke: #515151;stroke-width: 6;stroke-linecap:round;stroke-linejoin:round" fill="none"/>
			<polyline points="3093,3396 3094,3394 3095,3389" style="stroke: #515151;stroke-width: 6;stroke-linecap:round;stroke-linejoin:round" fill="none"/>
			<polyline points="3103,3362 3105,3355" style="stroke: #515151;stroke-width: 6;stroke-linecap:round;stroke-linejoin:round" fill="none"/>
			<polyline points="3113,3327 3114,3320" style="stroke: #515151;stroke-width: 6;stroke-linecap:round;stroke-linejoin:round" fill="none"/>
			<polyline points="3121,3292 3123,3285" style="stroke: #515151;stroke-width: 6;stroke-linecap:round;stroke-linejoin:round" fill="none"/>
			<polyline points="3130,3257 3132,3250" style="stroke: #515151;stroke-width: 6;stroke-linecap:round;stroke-linejoin:round" fill="none"/>
			<polyline points="3148,3234 3149,3227" style="stroke: #515151;stroke-width: 6;stroke-linecap:round;stroke-linejoin:round" fill="none"/>
			<polyline points="3152,3198 3153,3191" style="stroke: #515151;stroke-width: 6;stroke-linecap:round;stroke-linejoin:round" fill="none"/>
			<polyline points="3156,3163 3157,3156" style="stroke: #515151;stroke-width: 6;stroke-linecap:round;stroke-linejoin:round" fill="none"/>
			<polyline points="3160,3127 3160,3120" style="stroke: #515151;stroke-width: 6;stroke-linecap:round;stroke-linejoin:round" fill="none"/>
			<polyline points="3165,3091 3166,3084" style="stroke: #515151;stroke-width: 6;stroke-linecap:round;stroke-linejoin:round" fill="none"/>
			<polyline points="3171,3056 3172,3049" style="stroke: #515151;stroke-width: 6;stroke-linecap:round;stroke-linejoin:round" fill="none"/>
			<polyline points="3177,3020 3178,3013" style="stroke: #515151;stroke-width: 6;stroke-linecap:round;stroke-linejoin:round" fill="none"/>
			<polyline points="3183,2985 3185,2978" style="stroke: #515151;stroke-width: 6;stroke-linecap:round;stroke-linejoin:round" fill="none"/>
			<polyline points="3190,2950 3192,2943" style="stroke: #515151;stroke-width: 6;stroke-linecap:round;stroke-linejoin:round" fill="none"/>
			<polyline points="3199,2915 3200,2912 3201,2908" style="stroke: #515151;stroke-width: 6;stroke-linecap:round;stroke-linejoin:round" fill="none"/>
			<polyline points="3208,2880 3210,2873" style="stroke: #515151;stroke-width: 6;stroke-linecap:round;stroke-linejoin:round" fill="none"/>
			<polyline points="3217,2845 3218,2838" style="stroke: #515151;stroke-width: 6;stroke-linecap:round;stroke-linejoin:round" fill="none"/>
			<polyline points="3224,2809 3225,2802" style="stroke: #515151;stroke-width: 6;stroke-linecap:round;stroke-linejoin:round" fill="none"/>
			<polyline points="3231,2774 3233,2767" style="stroke: #515151;stroke-width: 6;stroke-linecap:round;stroke-linejoin:round" fill="none"/>
			<polyline points="3239,2739 3240,2736 3241,2732" style="stroke: #515151;stroke-width: 6;stroke-linecap:round;stroke-linejoin:round" fill="none"/>
			<polyline points="3247,2704 3248,2697" style="stroke: #515151;stroke-width: 6;stroke-linecap:round;stroke-linejoin:round" fill="none"/>
			<polyline points="3261,2676 3266,2676 3266,2674" style="stroke: #515151;stroke-width: 6;stroke-linecap:round;stroke-linejoin:round" fill="none"/>
			<polyline points="3270,2645 3271,2638" style="stroke: #515151;stroke-width: 6;stroke-linecap:round;stroke-linejoin:round" fill="none"/>
			<polyline points="3274,2609 3275,2602" style="stroke: #515151;stroke-width: 6;stroke-linecap:round;stroke-linejoin:round" fill="none"/>
			<polyline points="3278,2574 3279,2569 3281,2569" style="stroke: #515151;stroke-width: 6;stroke-linecap:round;stroke-linejoin:round" fill="none"/>
			<polyline points="3296,2552 3297,2545" style="stroke: #515151;stroke-width: 6;stroke-linecap:round;stroke-linejoin:round" fill="none"/>
			<polyline points="3302,2516 3303,2509" style="stroke: #515151;stroke-width: 6;stroke-linecap:round;stroke-linejoin:round" fill="none"/>
			<polyline points="3309,2482 3311,2476" style="stroke: #515151;stroke-width: 6;stroke-linecap:round;stroke-linejoin:round" fill="none"/>
			<polyline points="3322,2449 3325,2443" style="stroke: #515151;stroke-width: 6;stroke-linecap:round;stroke-linejoin:round" fill="none"/>
			<polyline points="3338,2422 3343,2417" style="stroke: #515151;stroke-width: 6;stroke-linecap:round;stroke-linejoin:round" fill="none"/>
			<polyline points="3359,2392 3362,2386" style="stroke: #515151;stroke-width: 6;stroke-linecap:round;stroke-linejoin:round" fill="none"/>
			<polyline points="3377,2362 3381,2357" style="stroke: #515151;stroke-width: 6;stroke-linecap:round;stroke-linejoin:round" fill="none"/>
			<polyline points="3397,2331 3398,2329 3400,2326" style="stroke: #515151;stroke-width: 6;stroke-linecap:round;stroke-linejoin:round" fill="none"/>
			<polyline points="3419,2302 3423,2296" style="stroke: #515151;stroke-width: 6;stroke-linecap:round;stroke-linejoin:round" fill="none"/>
			<polyline points="3441,2273 3445,2268" style="stroke: #515151;stroke-width: 6;stroke-linecap:round;stroke-linejoin:round" fill="none"/>
			<polyline points="3465,2246 3470,2241" style="stroke: #515151;stroke-width: 6;stroke-linecap:round;stroke-linejoin:round" fill="none"/>
			<polyline points="3491,2221 3497,2217" style="stroke: #515151;stroke-width: 6;stroke-linecap:round;stroke-linejoin:round" fill="none"/>
			<polyline points="3524,2199 3531,2196" style="stroke: #515151;stroke-width: 6;stroke-linecap:round;stroke-linejoin:round" fill="none"/>
			<polyline points="3558,2186 3564,2183" style="stroke: #515151;stroke-width: 6;stroke-linecap:round;stroke-linejoin:round" fill="none"/>
			<polyline points="3591,2170 3597,2167" style="stroke: #515151;stroke-width: 6;stroke-linecap:round;stroke-linejoin:round" fill="none"/>
			<polyline points="3626,2157 3633,2155" style="stroke: #515151;stroke-width: 6;stroke-linecap:round;stroke-linejoin:round" fill="none"/>
			<polyline points="3658,2147 3663,2144 3665,2144" style="stroke: #515151;stroke-width: 6;stroke-linecap:round;stroke-linejoin:round" fill="none"/>
			<polyline points="3694,2140 3701,2139" style="stroke: #515151;stroke-width: 6;stroke-linecap:round;stroke-linejoin:round" fill="none"/>
			<polyline points="3729,2133 3736,2132" style="stroke: #515151;stroke-width: 6;stroke-linecap:round;stroke-linejoin:round" fill="none"/>
			<polyline points="3765,2127 3768,2127 3772,2127" style="stroke: #515151;stroke-width: 6;stroke-linecap:round;stroke-linejoin:round" fill="none"/>
			<polyline points="3800,2122 3807,2120" style="stroke: #515151;stroke-width: 6;stroke-linecap:round;stroke-linejoin:round" fill="none"/>
			<polyline points="3836,2116 3843,2115" style="stroke: #515151;stroke-width: 6;stroke-linecap:round;stroke-linejoin:round" fill="none"/>
			<polyline points="3872,2113 3874,2113 3879,2113" style="stroke: #515151;stroke-width: 6;stroke-linecap:round;stroke-linejoin:round" fill="none"/>
			<polyline points="3908,2111 3914,2111 3915,2111" style="stroke: #515151;stroke-width: 6;stroke-linecap:round;stroke-linejoin:round" fill="none"/>
			<polyline points="3944,2110 3951,2109" style="stroke: #515151;stroke-width: 6;stroke-linecap:round;stroke-linejoin:round" fill="none"/>
			<polyline points="3980,2108 3987,2108" style="stroke: #515151;stroke-width: 6;stroke-linecap:round;stroke-linejoin:round" fill="none"/>
			<polyline points="2883,3796 2896,3792 2909,3784 2923,3778 2936,3765 2949,3739 2962,3739 2976,3720 2989,3698 3002,3674 3015,3621 3028,3587 3042,3553 3055,3516 3068,3480 3081,3437 3094,3394 3108,3346 3121,3292 3134,3243 3147,3243 3161,3115 3174,3038 3187,2964 3200,2912 3213,2863 3227,2793 3240,2736 3253,2676 3266,2676 3279,2569 3293,2569 3306,2491 3319,2455 3332,2428 3346,2414 3359,2392 3372,2369 3385,2351 3398,2329 3412,2312 3425,2293 3438,2277 3451,2261 3464,2247 3478,2232 3491,2221 3504,2212 3517,2201 3531,2196 3544,2192 3557,2186 3570,2180 3583,2173 3597,2167 3610,2161 3623,2157 3636,2155 3649,2152 3663,2144 3676,2144 3689,2141 3702,2139 3716,2136 3729,2133 3742,2132 3755,2129 3768,2127 3782,2127 3795,2123 3808,2120 3821,2118 3834,2116 3848,2114 3861,2113 3874,2113 3887,2113 3901,2112 3914,2111 3927,2110 3940,2110 3953,2109 3967,2109 3980,2108 3993,2108 4006,2089 4019,2068 4033,2043 4046,2014 4059,1982 4072,1950 4086,1917 4099,1885 4112,1855 4125,1825 4138,1797 4152,1771 4165,1746 4178,1724 4191,1703 4204,1683 4218,1666 4231,1649 4244,1634 4257,1621 4271,1608 4284,1597 4297,1587 4310,1578 4323,1569 4337,1562 4350,1555 4363,1548 4376,1543 4389,1538 4403,1533 4416,1529 4429,1525 4442,1522 4456,1519 4469,1516 4482,1514 4495,1511 4508,1509 4522,1508 4535,1506 4548,1504 4561,1503 4574,1502 4588,1501 4601,1500 4614,1499 4627,1498 4641,1497 4654,1497 4667,1496 4680,1496 4693,1495 4707,1495 4720,1494 4733,1494 4746,1494 4759,1494 4773,1493 4786,1493 4799,1493 4812,1493 4826,1493 4839,1492 4852,1492 4865,1492 4878,1492 4892,1492 4905,1492 4918,1492 4931,1492 4944,1492 4958,1492 4971,1492 4984,1491 4997,1491 5011,1491 5024,1491 5037,1491 5050,1491 5063,1491 5077,1491 5090,1491 5103,1491 5116,1491 5129,1491 5143,1491 5156,1491 5169,1491 5182,1491 5196,1491 5209,1491 5222,1491 5235,1491 5248,1491 5262,1491 5275,1491 5288,1491 5301,1491 5314,1491 5328,1491 5341,1491 5354,1491 5367,1491 5381,1491 5394,1491 5407,1491 5420,1491 5433,1491 5447,1491 5460,1491 5473,1491 5486,1491 5499,1491 5513,1491 5526,1491 5539,1491 5552,1491 5566,1491 5579,1491 5592,1491 5605,1491 5618,1491 5632,1491 5645,1491 5658,1491 5671,1491 5684,1491 5698,1491 5711,1491 5724,1491 5737,1491 5751,1491 5764,1491 5777,1491 5790,1491 5803,1491 5817,1491 5830,1491 5843,1491 5856,1491 5869,1491 5883,1491 5896,1491 5909,1491 5922,1491 5936,1491 5949,1491 5962,1491 5975,1491 5988,1491 6002,1491" style="stroke: #F14040;stroke-width: 6;stroke-linecap:round;stroke-linejoin:round" fill="none"/>
			<polyline points="2883,3796 2896,3792 2909,3784 2923,3778 2936,3765 2949,3739 2962,3739 2976,3720 2989,3698 3002,3674 3015,3621 3028,3587 3042,3553 3055,3516 3068,3480 3081,3437 3094,3394 3108,3346 3121,3292 3134,3243 3147,3243 3161,3115 3174,3038 3187,2964 3200,2912 3213,2863 3227,2793 3240,2736 3253,2676 3266,2676 3279,2569 3293,2569 3306,2491 3319,2455 3332,2428 3346,2414 3359,2392 3372,2369 3385,2351 3398,2329 3412,2312 3425,2293 3438,2277 3451,2261 3464,2247 3478,2232 3491,2221 3504,2212 3517,2201 3531,2196 3544,2192 3557,2186 3570,2180 3583,2173 3597,2167 3610,2161 3623,2157 3636,2155 3649,2152 3663,2144 3676,2144 3689,2141 3702,2139 3716,2136 3729,2133 3742,2132 3755,2129 3768,2127 3782,2127 3795,2123 3808,2120 3821,2118 3834,2116 3848,2114 3861,2113 3874,2113 3887,2113 3901,2112 3914,2111 3927,2110 3940,2110 3953,2109 3967,2109 3980,2108 3993,2092 4006,2073 4019,2052 4033,2027 4046,1997 4059,1966 4072,1934 4086,1901 4099,1869 4112,1838 4125,1809 4138,1781 4152,1755 4165,1730 4178,1708 4191,1687 4204,1667 4218,1649 4231,1633 4244,1618 4257,1605 4271,1592 4284,1581 4297,1571 4310,1561 4323,1553 4337,1545 4350,1539 4363,1532 4376,1527 4389,1522 4403,1517 4416,1513 4429,1509 4442,1506 4456,1503 4469,1500 4482,1497 4495,1495 4508,1493 4522,1491 4535,1490 4548,1488 4561,1487 4574,1486 4588,1485 4601,1484 4614,1483 4627,1482 4641,1481 4654,1481 4667,1480 4680,1480 4693,1479 4707,1479 4720,1478 4733,1478 4746,1478 4759,1477 4773,1477 4786,1477 4799,1477 4812,1476 4826,1476 4839,1476 4852,1476 4865,1476 4878,1476 4892,1476 4905,1476 4918,1476 4931,1475 4944,1475 4958,1475 4971,1475 4984,1475 4997,1475 5011,1475 5024,1475 5037,1475 5050,1475 5063,1475 5077,1475 5090,1475 5103,1475 5116,1475 5129,1475 5143,1475 5156,1475 5169,1475 5182,1475 5196,1475 5209,1475 5222,1475 5235,1475 5248,1475 5262,1475 5275,1475 5288,1475 5301,1475 5314,1475 5328,1475 5341,1475 5354,1475 5367,1475 5381,1475 5394,1475 5407,1475 5420,1475 5433,1475 5447,1475 5460,1475 5473,1475 5486,1475 5499,1475 5513,1475 5526,1475 5539,1475 5552,1475 5566,1475 5579,1475 5592,1475 5605,1475 5618,1475 5632,1475 5645,1475 5658,1475 5671,1475 5684,1475 5698,1475 5711,1475 5724,1475 5737,1475 5751,1475 5764,1475 5777,1475 5790,1475 5803,1475 5817,1475 5830,1475 5843,1475 5856,1475 5869,1475 5883,1475 5896,1475 5909,1475 5922,1475 5936,1475 5949,1475 5962,1475 5975,1475 5988,1475 6002,1475" style="stroke: #1A6FDF;stroke-width: 6;stroke-linecap:round;stroke-linejoin:round" fill="none"/>
			<polyline points="2883,3796 2896,3792 2909,3784 2923,3778 2936,3765 2949,3739 2962,3739 2976,3720 2989,3698 3002,3674 3015,3621 3028,3587 3042,3553 3055,3516 3068,3480 3081,3437 3094,3394 3108,3346 3121,3292 3134,3243 3147,3243 3161,3115 3174,3038 3187,2964 3200,2912 3213,2863 3227,2793 3240,2736 3253,2676 3266,2676 3279,2569 3293,2569 3306,2491 3319,2455 3332,2428 3346,2414 3359,2392 3372,2369 3385,2351 3398,2329 3412,2312 3425,2293 3438,2277 3451,2261 3464,2247 3478,2232 3491,2221 3504,2212 3517,2201 3531,2196 3544,2192 3557,2186 3570,2180 3583,2173 3597,2167 3610,2161 3623,2157 3636,2155 3649,2152 3663,2144 3676,2144 3689,2141 3702,2139 3716,2136 3729,2133 3742,2132 3755,2129 3768,2127 3782,2127 3795,2123 3808,2120 3821,2118 3834,2116 3848,2114 3861,2113 3874,2113 3887,2113 3901,2112 3914,2111 3927,2110 3940,2110 3953,2109 3967,2109 3980,2095 3993,2078 4006,2060 4019,2038 4033,2013 4046,1984 4059,1953 4072,1920 4086,1888 4099,1856 4112,1825 4125,1795 4138,1767 4152,1741 4165,1717 4178,1694 4191,1673 4204,1654 4218,1636 4231,1620 4244,1605 4257,1591 4271,1579 4284,1567 4297,1557 4310,1548 4323,1539 4337,1532 4350,1525 4363,1519 4376,1513 4389,1508 4403,1503 4416,1499 4429,1495 4442,1492 4456,1489 4469,1486 4482,1484 4495,1482 4508,1480 4522,1478 4535,1476 4548,1475 4561,1473 4574,1472 4588,1471 4601,1470 4614,1469 4627,1468 4641,1468 4654,1467 4667,1466 4680,1466 4693,1466 4707,1465 4720,1465 4733,1464 4746,1464 4759,1464 4773,1464 4786,1463 4799,1463 4812,1463 4826,1463 4839,1463 4852,1463 4865,1462 4878,1462 4892,1462 4905,1462 4918,1462 4931,1462 4944,1462 4958,1462 4971,1462 4984,1462 4997,1462 5011,1462 5024,1462 5037,1462 5050,1462 5063,1462 5077,1462 5090,1461 5103,1461 5116,1461 5129,1461 5143,1461 5156,1461 5169,1461 5182,1461 5196,1461 5209,1461 5222,1461 5235,1461 5248,1461 5262,1461 5275,1461 5288,1461 5301,1461 5314,1461 5328,1461 5341,1461 5354,1461 5367,1461 5381,1461 5394,1461 5407,1461 5420,1461 5433,1461 5447,1461 5460,1461 5473,1461 5486,1461 5499,1461 5513,1461 5526,1461 5539,1461 5552,1461 5566,1461 5579,1461 5592,1461 5605,1461 5618,1461 5632,1461 5645,1461 5658,1461 5671,1461 5684,1461 5698,1461 5711,1461 5724,1461 5737,1461 5751,1461 5764,1461 5777,1461 5790,1461 5803,1461 5817,1461 5830,1461 5843,1461 5856,1461 5869,1461 5883,1461 5896,1461 5909,1461 5922,1461 5936,1461 5949,1461 5962,1461 5975,1461 5988,1461 6002,1461" style="stroke: #37AD6B;stroke-width: 6;stroke-linecap:round;stroke-linejoin:round" fill="none"/>
			<polyline points="2883,3796 2896,3792 2909,3784 2923,3778 2936,3765 2949,3739 2962,3739 2976,3720 2989,3698 3002,3674 3015,3621 3028,3587 3042,3553 3055,3516 3068,3480 3081,3437 3094,3394 3108,3346 3121,3292 3134,3243 3147,3243 3161,3115 3174,3038 3187,2964 3200,2912 3213,2863 3227,2793 3240,2736 3253,2676 3266,2676 3279,2569 3293,2569 3306,2491 3319,2455 3332,2428 3346,2414 3359,2392 3372,2369 3385,2351 3398,2329 3412,2312 3425,2293 3438,2277 3451,2261 3464,2247 3478,2232 3491,2221 3504,2212 3517,2201 3531,2196 3544,2192 3557,2186 3570,2180 3583,2173 3597,2167 3610,2161 3623,2157 3636,2155 3649,2152 3663,2144 3676,2144 3689,2141 3702,2139 3716,2136 3729,2133 3742,2132 3755,2129 3768,2127 3782,2127 3795,2123 3808,2120 3821,2118 3834,2116 3848,2114 3861,2113 3874,2113 3887,2113 3901,2112 3914,2111 3927,2110 3940,2110 3953,2109 3967,2096 3980,2082 3993,2066 4006,2047 4019,2026 4033,2001 4046,1972 4059,1940 4072,1908 4086,1875 4099,1844 4112,1813 4125,1783 4138,1755 4152,1729 4165,1705 4178,1682 4191,1661 4204,1641 4218,1624 4231,1607 4244,1592 4257,1579 4271,1566 4284,1555 4297,1545 4310,1536 4323,1527 4337,1520 4350,1513 4363,1507 4376,1501 4389,1496 4403,1491 4416,1487 4429,1483 4442,1480 4456,1477 4469,1474 4482,1472 4495,1469 4508,1467 4522,1466 4535,1464 4548,1462 4561,1461 4574,1460 4588,1459 4601,1458 4614,1457 4627,1456 4641,1455 4654,1455 4667,1454 4680,1454 4693,1453 4707,1453 4720,1452 4733,1452 4746,1452 4759,1452 4773,1451 4786,1451 4799,1451 4812,1451 4826,1451 4839,1450 4852,1450 4865,1450 4878,1450 4892,1450 4905,1450 4918,1450 4931,1450 4944,1450 4958,1450 4971,1450 4984,1450 4997,1449 5011,1449 5024,1449 5037,1449 5050,1449 5063,1449 5077,1449 5090,1449 5103,1449 5116,1449 5129,1449 5143,1449 5156,1449 5169,1449 5182,1449 5196,1449 5209,1449 5222,1449 5235,1449 5248,1449 5262,1449 5275,1449 5288,1449 5301,1449 5314,1449 5328,1449 5341,1449 5354,1449 5367,1449 5381,1449 5394,1449 5407,1449 5420,1449 5433,1449 5447,1449 5460,1449 5473,1449 5486,1449 5499,1449 5513,1449 5526,1449 5539,1449 5552,1449 5566,1449 5579,1449 5592,1449 5605,1449 5618,1449 5632,1449 5645,1449 5658,1449 5671,1449 5684,1449 5698,1449 5711,1449 5724,1449 5737,1449 5751,1449 5764,1449 5777,1449 5790,1449 5803,1449 5817,1449 5830,1449 5843,1449 5856,1449 5869,1449 5883,1449 5896,1449 5909,1449 5922,1449 5936,1449 5949,1449 5962,1449 5975,1449 5988,1449 6002,1449" style="stroke: #B177DE;stroke-width: 6;stroke-linecap:round;stroke-linejoin:round" fill="none"/>
			<polyline points="2883,3796 2896,3792 2909,3784 2923,3778 2936,3765 2949,3739 2962,3739 2976,3720 2989,3698 3002,3674 3015,3621 3028,3587 3042,3553 3055,3516 3068,3480 3081,3437 3094,3394 3108,3346 3121,3292 3134,3243 3147,3243 3161,3115 3174,3038 3187,2964 3200,2912 3213,2863 3227,2793 3240,2736 3253,2676 3266,2676 3279,2569 3293,2569 3306,2491 3319,2455 3332,2428 3346,2414 3359,2392 3372,2369 3385,2351 3398,2329 3412,2312 3425,2293 3438,2277 3451,2261 3464,2247 3478,2232 3491,2221 3504,2212 3517,2201 3531,2196 3544,2192 3557,2186 3570,2180 3583,2173 3597,2167 3610,2161 3623,2157 3636,2155 3649,2152 3663,2144 3676,2144 3689,2141 3702,2139 3716,2136 3729,2133 3742,2132 3755,2129 3768,2127 3782,2127 3795,2123 3808,2120 3821,2118 3834,2116 3848,2114 3861,2113 3874,2113 3887,2113 3901,2112 3914,2111 3927,2110 3940,2110 3953,2099 3967,2087 3980,2073 3993,2056 4006,2038 4019,2016 4033,1991 4046,1962 4059,1931 4072,1898 4086,1866 4099,1834 4112,1803 4125,1774 4138,1746 4152,1719 4165,1695 4178,1672 4191,1651 4204,1632 4218,1614 4231,1598 4244,1583 4257,1569 4271,1557 4284,1546 4297,1535 4310,1526 4323,1518 4337,1510 4350,1503 4363,1497 4376,1491 4389,1486 4403,1482 4416,1477 4429,1474 4442,1470 4456,1467 4469,1464 4482,1462 4495,1460 4508,1458 4522,1456 4535,1454 4548,1453 4561,1451 4574,1450 4588,1449 4601,1448 4614,1447 4627,1447 4641,1446 4654,1445 4667,1445 4680,1444 4693,1444 4707,1443 4720,1443 4733,1443 4746,1442 4759,1442 4773,1442 4786,1441 4799,1441 4812,1441 4826,1441 4839,1441 4852,1441 4865,1441 4878,1440 4892,1440 4905,1440 4918,1440 4931,1440 4944,1440 4958,1440 4971,1440 4984,1440 4997,1440 5011,1440 5024,1440 5037,1440 5050,1440 5063,1440 5077,1440 5090,1440 5103,1440 5116,1440 5129,1440 5143,1440 5156,1440 5169,1440 5182,1440 5196,1440 5209,1440 5222,1440 5235,1440 5248,1440 5262,1440 5275,1440 5288,1440 5301,1440 5314,1440 5328,1440 5341,1440 5354,1440 5367,1440 5381,1440 5394,1440 5407,1440 5420,1440 5433,1440 5447,1440 5460,1440 5473,1440 5486,1440 5499,1440 5513,1439 5526,1439 5539,1439 5552,1439 5566,1439 5579,1439 5592,1439 5605,1439 5618,1439 5632,1439 5645,1439 5658,1439 5671,1439 5684,1439 5698,1439 5711,1439 5724,1439 5737,1439 5751,1439 5764,1439 5777,1439 5790,1439 5803,1439 5817,1439 5830,1439 5843,1439 5856,1439 5869,1439 5883,1439 5896,1439 5909,1439 5922,1439 5936,1439 5949,1439 5962,1439 5975,1439 5988,1439 6002,1439" style="stroke: #CC9900;stroke-width: 6;stroke-linecap:round;stroke-linejoin:round" fill="none"/>
			<polyline points="2883,3796 2896,3792 2909,3784 2923,3778 2936,3765 2949,3739 2962,3739 2976,3720 2989,3698 3002,3674 3015,3621 3028,3587 3042,3553 3055,3516 3068,3480 3081,3437 3094,3394 3108,3346 3121,3292 3134,3243 3147,3243 3161,3115 3174,3038 3187,2964 3200,2912 3213,2863 3227,2793 3240,2736 3253,2676 3266,2676 3279,2569 3293,2569 3306,2491 3319,2455 3332,2428 3346,2414 3359,2392 3372,2369 3385,2351 3398,2329 3412,2312 3425,2293 3438,2277 3451,2261 3464,2247 3478,2232 3491,2221 3504,2212 3517,2201 3531,2196 3544,2192 3557,2186 3570,2180 3583,2173 3597,2167 3610,2161 3623,2157 3636,2155 3649,2152 3663,2144 3676,2144 3689,2141 3702,2139 3716,2136 3729,2133 3742,2132 3755,2129 3768,2127 3782,2127 3795,2123 3808,2120 3821,2118 3834,2116 3848,2114 3861,2113 3874,2113 3887,2113 3901,2112 3914,2111 3927,2110 3940,2100 3953,2090 3967,2077 3980,2063 3993,2047 4006,2028 4019,2007 4033,1982 4046,1953 4059,1921 4072,1889 4086,1856 4099,1824 4112,1794 4125,1764 4138,1736 4152,1710 4165,1685 4178,1663 4191,1642 4204,1622 4218,1605 4231,1588 4244,1573 4257,1560 4271,1547 4284,1536 4297,1526 4310,1517 4323,1508 4337,1501 4350,1494 4363,1487 4376,1482 4389,1477 4403,1472 4416,1468 4429,1464 4442,1461 4456,1458 4469,1455 4482,1453 4495,1450 4508,1448 4522,1446 4535,1445 4548,1443 4561,1442 4574,1441 4588,1440 4601,1439 4614,1438 4627,1437 4641,1436 4654,1436 4667,1435 4680,1435 4693,1434 4707,1434 4720,1433 4733,1433 4746,1433 4759,1433 4773,1432 4786,1432 4799,1432 4812,1432 4826,1431 4839,1431 4852,1431 4865,1431 4878,1431 4892,1431 4905,1431 4918,1431 4931,1431 4944,1431 4958,1431 4971,1430 4984,1430 4997,1430 5011,1430 5024,1430 5037,1430 5050,1430 5063,1430 5077,1430 5090,1430 5103,1430 5116,1430 5129,1430 5143,1430 5156,1430 5169,1430 5182,1430 5196,1430 5209,1430 5222,1430 5235,1430 5248,1430 5262,1430 5275,1430 5288,1430 5301,1430 5314,1430 5328,1430 5341,1430 5354,1430 5367,1430 5381,1430 5394,1430 5407,1430 5420,1430 5433,1430 5447,1430 5460,1430 5473,1430 5486,1430 5499,1430 5513,1430 5526,1430 5539,1430 5552,1430 5566,1430 5579,1430 5592,1430 5605,1430 5618,1430 5632,1430 5645,1430 5658,1430 5671,1430 5684,1430 5698,1430 5711,1430 5724,1430 5737,1430 5751,1430 5764,1430 5777,1430 5790,1430 5803,1430 5817,1430 5830,1430 5843,1430 5856,1430 5869,1430 5883,1430 5896,1430 5909,1430 5922,1430 5936,1430 5949,1430 5962,1430 5975,1430 5988,1430 6002,1430" style="stroke: #00CBCC;stroke-width: 6;stroke-linecap:round;stroke-linejoin:round" fill="none"/>
			<polyline points="2883,3796 2896,3792 2909,3784 2923,3778 2936,3765 2949,3739 2962,3739 2976,3720 2989,3698 3002,3674 3015,3621 3028,3587 3042,3553 3055,3516 3068,3480 3081,3437 3094,3394 3108,3346 3121,3292 3134,3243 3147,3243 3161,3115 3174,3038 3187,2964 3200,2912 3213,2863 3227,2793 3240,2736 3253,2676 3266,2676 3279,2569 3293,2569 3306,2491 3319,2455 3332,2428 3346,2414 3359,2392 3372,2369 3385,2351 3398,2329 3412,2312 3425,2293 3438,2277 3451,2261 3464,2247 3478,2232 3491,2221 3504,2212 3517,2201 3531,2196 3544,2192 3557,2186 3570,2180 3583,2173 3597,2167 3610,2161 3623,2157 3636,2155 3649,2152 3663,2144 3676,2144 3689,2141 3702,2139 3716,2136 3729,2133 3742,2132 3755,2129 3768,2127 3782,2127 3795,2123 3808,2120 3821,2118 3834,2116 3848,2114 3861,2113 3874,2113 3887,2113 3901,2112 3914,2111 3927,2103 3940,2093 3953,2083 3967,2070 3980,2056 3993,2040 4006,2021 4019,2000 4033,1975 4046,1946 4059,1914 4072,1882 4086,1849 4099,1817 4112,1787 4125,1757 4138,1729 4152,1703 4165,1678 4178,1656 4191,1635 4204,1615 4218,1598 4231,1581 4244,1566 4257,1553 4271,1540 4284,1529 4297,1519 4310,1510 4323,1501 4337,1494 4350,1487 4363,1480 4376,1475 4389,1470 4403,1465 4416,1461 4429,1457 4442,1454 4456,1451 4469,1448 4482,1446 4495,1443 4508,1441 4522,1439 4535,1438 4548,1436 4561,1435 4574,1434 4588,1433 4601,1432 4614,1431 4627,1430 4641,1429 4654,1429 4667,1428 4680,1428 4693,1427 4707,1427 4720,1426 4733,1426 4746,1426 4759,1426 4773,1425 4786,1425 4799,1425 4812,1425 4826,1424 4839,1424 4852,1424 4865,1424 4878,1424 4892,1424 4905,1424 4918,1424 4931,1424 4944,1424 4958,1424 4971,1423 4984,1423 4997,1423 5011,1423 5024,1423 5037,1423 5050,1423 5063,1423 5077,1423 5090,1423 5103,1423 5116,1423 5129,1423 5143,1423 5156,1423 5169,1423 5182,1423 5196,1423 5209,1423 5222,1423 5235,1423 5248,1423 5262,1423 5275,1423 5288,1423 5301,1423 5314,1423 5328,1423 5341,1423 5354,1423 5367,1423 5381,1423 5394,1423 5407,1423 5420,1423 5433,1423 5447,1423 5460,1423 5473,1423 5486,1423 5499,1423 5513,1423 5526,1423 5539,1423 5552,1423 5566,1423 5579,1423 5592,1423 5605,1423 5618,1423 5632,1423 5645,1423 5658,1423 5671,1423 5684,1423 5698,1423 5711,1423 5724,1423 5737,1423 5751,1423 5764,1423 5777,1423 5790,1423 5803,1423 5817,1423 5830,1423 5843,1423 5856,1423 5869,1423 5883,1423 5896,1423 5909,1423 5922,1423 5936,1423 5949,1423 5962,1423 5975,1423 5988,1423 6002,1423" style="stroke: #7D4E4E;stroke-width: 6;stroke-linecap:round;stroke-linejoin:round" fill="none"/>
			<polyline points="2883,3796 2896,3793 2909,3787 2923,3778 2936,3766 2949,3751 2962,3732 2976,3711 2989,3687 3002,3659 3015,3628 3028,3594 3042,3558 3055,3518 3068,3476 3081,3431 3094,3383 3108,3333 3121,3280 3134,3225 3147,3167 3161,3108 3174,3048 3187,2988 3200,2928 3213,2869 3227,2811 3240,2756 3253,2703 3266,2653 3279,2606 3293,2562 3306,2521 3319,2483 3332,2447 3346,2415 3359,2385 3372,2358 3385,2333 3398,2310 3412,2288 3425,2267 3438,2247 3451,2229 3464,2211 3478,2195 3491,2179 3504,2165 3517,2152 3531,2140 3544,2129 3557,2118 3570,2107 3583,2097 3597,2087 3610,2076 3623,2066 3636,2056 3649,2047 3663,2037 3676,2027 3689,2017 3702,2007 3716,1997 3729,1987 3742,1977 3755,1966 3768,1955 3782,1944 3795,1933 3808,1922 3821,1912 3834,1902 3848,1892 3861,1883 3874,1875 3887,1867 3901,1859 3914,1851 3927,1842 3940,1833 3953,1822 3967,1810 3980,1796 3993,1779 4006,1761 4019,1739 4033,1714 4046,1685 4059,1654 4072,1621 4086,1589 4099,1557 4112,1526 4125,1496 4138,1468 4152,1442 4165,1418 4178,1395 4191,1374 4204,1355 4218,1337 4231,1321 4244,1306 4257,1292 4271,1280 4284,1268 4297,1258 4310,1249 4323,1241 4337,1233 4350,1226 4363,1220 4376,1214 4389,1209 4403,1204 4416,1200 4429,1197 4442,1193 4456,1190 4469,1187 4482,1185 4495,1183 4508,1181 4522,1179 4535,1177 4548,1176 4561,1174 4574,1173 4588,1172 4601,1171 4614,1170 4627,1169 4641,1169 4654,1168 4667,1168 4680,1167 4693,1167 4707,1166 4720,1166 4733,1165 4746,1165 4759,1165 4773,1165 4786,1164 4799,1164 4812,1164 4826,1164 4839,1164 4852,1164 4865,1163 4878,1163 4892,1163 4905,1163 4918,1163 4931,1163 4944,1163 4958,1163 4971,1163 4984,1163 4997,1163 5011,1163 5024,1163 5037,1163 5050,1163 5063,1163 5077,1163 5090,1163 5103,1163 5116,1163 5129,1162 5143,1162 5156,1162 5169,1162 5182,1162 5196,1162 5209,1162 5222,1162 5235,1162 5248,1162 5262,1162 5275,1162 5288,1162 5301,1162 5314,1162 5328,1162 5341,1162 5354,1162 5367,1162 5381,1162 5394,1162 5407,1162 5420,1162 5433,1162 5447,1162 5460,1162 5473,1162 5486,1162 5499,1162 5513,1162 5526,1162 5539,1162 5552,1162 5566,1162 5579,1162 5592,1162 5605,1162 5618,1162 5632,1162 5645,1162 5658,1162 5671,1162 5684,1162 5698,1162 5711,1162 5724,1162 5737,1162 5751,1162 5764,1162 5777,1162 5790,1162 5803,1162 5817,1162 5830,1162 5843,1162 5856,1162 5869,1162 5883,1162 5896,1162 5909,1162 5922,1162 5936,1162 5949,1162 5962,1162 5975,1162 5988,1162 6002,1162" style="stroke: #8E8E00;stroke-width: 6;stroke-linecap:round;stroke-linejoin:round" fill="none"/>
			<polygon points="2879,3796 2887,3796 2887,3805 2879,3805" shape-rendering="crispEdges" fill="#6699CC" fill-rule="evenodd" style="stroke: #6699CC;stroke-width: 3;stroke-linecap:round;stroke-linejoin:round"/>
			<polygon points="2892,3792 2900,3792 2900,3805 2892,3805" shape-rendering="crispEdges" fill="#6699CC" fill-rule="evenodd" style="stroke: #6699CC;stroke-width: 3;stroke-linecap:round;stroke-linejoin:round"/>
			<polygon points="2905,3784 2913,3784 2913,3805 2905,3805" shape-rendering="crispEdges" fill="#6699CC" fill-rule="evenodd" style="stroke: #6699CC;stroke-width: 3;stroke-linecap:round;stroke-linejoin:round"/>
			<polygon points="2919,3778 2927,3778 2927,3805 2919,3805" shape-rendering="crispEdges" fill="#6699CC" fill-rule="evenodd" style="stroke: #6699CC;stroke-width: 3;stroke-linecap:round;stroke-linejoin:round"/>
			<polygon points="2932,3765 2940,3765 2940,3805 2932,3805" shape-rendering="crispEdges" fill="#6699CC" fill-rule="evenodd" style="stroke: #6699CC;stroke-width: 3;stroke-linecap:round;stroke-linejoin:round"/>
			<polygon points="2945,3739 2953,3739 2953,3805 2945,3805" shape-rendering="crispEdges" fill="#6699CC" fill-rule="evenodd" style="stroke: #6699CC;stroke-width: 3;stroke-linecap:round;stroke-linejoin:round"/>
			<polygon points="2958,3739 2966,3739 2966,3805 2958,3805" shape-rendering="crispEdges" fill="#6699CC" fill-rule="evenodd" style="stroke: #6699CC;stroke-width: 3;stroke-linecap:round;stroke-linejoin:round"/>
			<polygon points="2972,3720 2979,3720 2979,3805 2972,3805" shape-rendering="crispEdges" fill="#6699CC" fill-rule="evenodd" style="stroke: #6699CC;stroke-width: 3;stroke-linecap:round;stroke-linejoin:round"/>
			<polygon points="2985,3698 2993,3698 2993,3805 2985,3805" shape-rendering="crispEdges" fill="#6699CC" fill-rule="evenodd" style="stroke: #6699CC;stroke-width: 3;stroke-linecap:round;stroke-linejoin:round"/>
			<polygon points="2998,3674 3006,3674 3006,3805 2998,3805" shape-rendering="crispEdges" fill="#6699CC" fill-rule="evenodd" style="stroke: #6699CC;stroke-width: 3;stroke-linecap:round;stroke-linejoin:round"/>
			<polygon points="3011,3621 3019,3621 3019,3805 3011,3805" shape-rendering="crispEdges" fill="#6699CC" fill-rule="evenodd" style="stroke: #6699CC;stroke-width: 3;stroke-linecap:round;stroke-linejoin:round"/>
			<polygon points="3024,3587 3032,3587 3032,3805 3024,3805" shape-rendering="crispEdges" fill="#6699CC" fill-rule="evenodd" style="stroke: #6699CC;stroke-width: 3;stroke-linecap:round;stroke-linejoin:round"/>
			<polygon points="3038,3553 3046,3553 3046,3805 3038,3805" shape-rendering="crispEdges" fill="#6699CC" fill-rule="evenodd" style="stroke: #6699CC;stroke-width: 3;stroke-linecap:round;stroke-linejoin:round"/>
			<polygon points="3051,3516 3059,3516 3059,3805 3051,3805" shape-rendering="crispEdges" fill="#6699CC" fill-rule="evenodd" style="stroke: #6699CC;stroke-width: 3;stroke-linecap:round;stroke-linejoin:round"/>
			<polygon points="3064,3480 3072,3480 3072,3805 3064,3805" shape-rendering="crispEdges" fill="#6699CC" fill-rule="evenodd" style="stroke: #6699CC;stroke-width: 3;stroke-linecap:round;stroke-linejoin:round"/>
			<polygon points="3077,3437 3085,3437 3085,3805 3077,3805" shape-rendering="crispEdges" fill="#6699CC" fill-rule="evenodd" style="stroke: #6699CC;stroke-width: 3;stroke-linecap:round;stroke-linejoin:round"/>
			<polygon points="3090,3394 3098,3394 3098,3805 3090,3805" shape-rendering="crispEdges" fill="#6699CC" fill-rule="evenodd" style="stroke: #6699CC;stroke-width: 3;stroke-linecap:round;stroke-linejoin:round"/>
			<polygon points="3104,3346 3112,3346 3112,3805 3104,3805" shape-rendering="crispEdges" fill="#6699CC" fill-rule="evenodd" style="stroke: #6699CC;stroke-width: 3;stroke-linecap:round;stroke-linejoin:round"/>
			<polygon points="3117,3292 3125,3292 3125,3805 3117,3805" shape-rendering="crispEdges" fill="#6699CC" fill-rule="evenodd" style="stroke: #6699CC;stroke-width: 3;stroke-linecap:round;stroke-linejoin:round"/>
			<polygon points="3130,3243 3138,3243 3138,3805 3130,3805" shape-rendering="crispEdges" fill="#6699CC" fill-rule="evenodd" style="stroke: #6699CC;stroke-width: 3;stroke-linecap:round;stroke-linejoin:round"/>
			<polygon points="3143,3243 3151,3243 3151,3805 3143,3805" shape-rendering="crispEdges" fill="#6699CC" fill-rule="evenodd" style="stroke: #6699CC;stroke-width: 3;stroke-linecap:round;stroke-linejoin:round"/>
			<polygon points="3157,3115 3164,3115 3164,3805 3157,3805" shape-rendering="crispEdges" fill="#6699CC" fill-rule="evenodd" style="stroke: #6699CC;stroke-width: 3;stroke-linecap:round;stroke-linejoin:round"/>
			<polygon points="3170,3038 3178,3038 3178,3805 3170,3805" shape-rendering="crispEdges" fill="#6699CC" fill-rule="evenodd" style="stroke: #6699CC;stroke-width: 3;stroke-linecap:round;stroke-linejoin:round"/>
			<polygon points="3183,2964 3191,2964 3191,3805 3183,3805" shape-rendering="crispEdges" fill="#6699CC" fill-rule="evenodd" style="stroke: #6699CC;stroke-width: 3;stroke-linecap:round;stroke-linejoin:round"/>
			<polygon points="3196,2912 3204,2912 3204,3805 3196,3805" shape-rendering="crispEdges" fill="#6699CC" fill-rule="evenodd" style="stroke: #6699CC;stroke-width: 3;stroke-linecap:round;stroke-linejoin:round"/>
			<polygon points="3209,2863 3217,2863 3217,3805 3209,3805" shape-rendering="crispEdges" fill="#6699CC" fill-rule="evenodd" style="stroke: #6699CC;stroke-width: 3;stroke-linecap:round;stroke-linejoin:round"/>
			<polygon points="3223,2793 3231,2793 3231,3805 3223,3805" shape-rendering="crispEdges" fill="#6699CC" fill-rule="evenodd" style="stroke: #6699CC;stroke-width: 3;stroke-linecap:round;stroke-linejoin:round"/>
			<polygon points="3236,2736 3244,2736 3244,3805 3236,3805" shape-rendering="crispEdges" fill="#6699CC" fill-rule="evenodd" style="stroke: #6699CC;stroke-width: 3;stroke-linecap:round;stroke-linejoin:round"/>
			<polygon points="3249,2676 3257,2676 3257,3805 3249,3805" shape-rendering="crispEdges" fill="#6699CC" fill-rule="evenodd" style="stroke: #6699CC;stroke-width: 3;stroke-linecap:round;stroke-linejoin:round"/>
			<polygon points="3262,2676 3270,2676 3270,3805 3262,3805" shape-rendering="crispEdges" fill="#6699CC" fill-rule="evenodd" style="stroke: #6699CC;stroke-width: 3;stroke-linecap:round;stroke-linejoin:round"/>
			<polygon points="3275,2569 3283,2569 3283,3805 3275,3805" shape-rendering="crispEdges" fill="#6699CC" fill-rule="evenodd" style="stroke: #6699CC;stroke-width: 3;stroke-linecap:round;stroke-linejoin:round"/>
			<polygon points="3289,2569 3297,2569 3297,3805 3289,3805" shape-rendering="crispEdges" fill="#6699CC" fill-rule="evenodd" style="stroke: #6699CC;stroke-width: 3;stroke-linecap:round;stroke-linejoin:round"/>
			<polygon points="3302,2491 3310,2491 3310,3805 3302,3805" shape-rendering="crispEdges" fill="#6699CC" fill-rule="evenodd" style="stroke: #6699CC;stroke-width: 3;stroke-linecap:round;stroke-linejoin:round"/>
			<polygon points="3315,2455 3323,2455 3323,3805 3315,3805" shape-rendering="crispEdges" fill="#6699CC" fill-rule="evenodd" style="stroke: #6699CC;stroke-width: 3;stroke-linecap:round;stroke-linejoin:round"/>
			<polygon points="3328,2428 3336,2428 3336,3805 3328,3805" shape-rendering="crispEdges" fill="#6699CC" fill-rule="evenodd" style="stroke: #6699CC;stroke-width: 3;stroke-linecap:round;stroke-linejoin:round"/>
			<polygon points="3342,2414 3349,2414 3349,3805 3342,3805" shape-rendering="crispEdges" fill="#6699CC" fill-rule="evenodd" style="stroke: #6699CC;stroke-width: 3;stroke-linecap:round;stroke-linejoin:round"/>
			<polygon points="3355,2392 3363,2392 3363,3805 3355,3805" shape-rendering="crispEdges" fill="#6699CC" fill-rule="evenodd" style="stroke: #6699CC;stroke-width: 3;stroke-linecap:round;stroke-linejoin:round"/>
			<polygon points="3368,2369 3376,2369 3376,3805 3368,3805" shape-rendering="crispEdges" fill="#6699CC" fill-rule="evenodd" style="stroke: #6699CC;stroke-width: 3;stroke-linecap:round;stroke-linejoin:round"/>
			<polygon points="3381,2351 3389,2351 3389,3805 3381,3805" shape-rendering="crispEdges" fill="#6699CC" fill-rule="evenodd" style="stroke: #6699CC;stroke-width: 3;stroke-linecap:round;stroke-linejoin:round"/>
			<polygon points="3394,2329 3402,2329 3402,3805 3394,3805" shape-rendering="crispEdges" fill="#6699CC" fill-rule="evenodd" style="stroke: #6699CC;stroke-width: 3;stroke-linecap:round;stroke-linejoin:round"/>
			<polygon points="3408,2312 3416,2312 3416,3805 3408,3805" shape-rendering="crispEdges" fill="#6699CC" fill-rule="evenodd" style="stroke: #6699CC;stroke-width: 3;stroke-linecap:round;stroke-linejoin:round"/>
			<polygon points="3421,2293 3429,2293 3429,3805 3421,3805" shape-rendering="crispEdges" fill="#6699CC" fill-rule="evenodd" style="stroke: #6699CC;stroke-width: 3;stroke-linecap:round;stroke-linejoin:round"/>
			<polygon points="3434,2277 3442,2277 3442,3805 3434,3805" shape-rendering="crispEdges" fill="#6699CC" fill-rule="evenodd" style="stroke: #6699CC;stroke-width: 3;stroke-linecap:round;stroke-linejoin:round"/>
			<polygon points="3447,2261 3455,2261 3455,3805 3447,3805" shape-rendering="crispEdges" fill="#6699CC" fill-rule="evenodd" style="stroke: #6699CC;stroke-width: 3;stroke-linecap:round;stroke-linejoin:round"/>
			<polygon points="3460,2247 3468,2247 3468,3805 3460,3805" shape-rendering="crispEdges" fill="#6699CC" fill-rule="evenodd" style="stroke: #6699CC;stroke-width: 3;stroke-linecap:round;stroke-linejoin:round"/>
			<polygon points="3474,2232 3482,2232 3482,3805 3474,3805" shape-rendering="crispEdges" fill="#6699CC" fill-rule="evenodd" style="stroke: #6699CC;stroke-width: 3;stroke-linecap:round;stroke-linejoin:round"/>
			<polygon points="3487,2221 3495,2221 3495,3805 3487,3805" shape-rendering="crispEdges" fill="#6699CC" fill-rule="evenodd" style="stroke: #6699CC;stroke-width: 3;stroke-linecap:round;stroke-linejoin:round"/>
			<polygon points="3500,2212 3508,2212 3508,3805 3500,3805" shape-rendering="crispEdges" fill="#6699CC" fill-rule="evenodd" style="stroke: #6699CC;stroke-width: 3;stroke-linecap:round;stroke-linejoin:round"/>
			<polygon points="3513,2201 3521,2201 3521,3805 3513,3805" shape-rendering="crispEdges" fill="#6699CC" fill-rule="evenodd" style="stroke: #6699CC;stroke-width: 3;stroke-linecap:round;stroke-linejoin:round"/>
			<polygon points="3527,2196 3534,2196 3534,3805 3527,3805" shape-rendering="crispEdges" fill="#6699CC" fill-rule="evenodd" style="stroke: #6699CC;stroke-width: 3;stroke-linecap:round;stroke-linejoin:round"/>
			<polygon points="3540,2192 3548,2192 3548,3805 3540,3805" shape-rendering="crispEdges" fill="#6699CC" fill-rule="evenodd" style="stroke: #6699CC;stroke-width: 3;stroke-linecap:round;stroke-linejoin:round"/>
			<polygon points="3553,2186 3561,2186 3561,3805 3553,3805" shape-rendering="crispEdges" fill="#6699CC" fill-rule="evenodd" style="stroke: #6699CC;stroke-width: 3;stroke-linecap:round;stroke-linejoin:round"/>
			<polygon points="3566,2180 3574,2180 3574,3805 3566,3805" shape-rendering="crispEdges" fill="#6699CC" fill-rule="evenodd" style="stroke: #6699CC;stroke-width: 3;stroke-linecap:round;stroke-linejoin:round"/>
			<polygon points="3579,2173 3587,2173 3587,3805 3579,3805" shape-rendering="crispEdges" fill="#6699CC" fill-rule="evenodd" style="stroke: #6699CC;stroke-width: 3;stroke-linecap:round;stroke-linejoin:round"/>
			<polygon points="3593,2167 3601,2167 3601,3805 3593,3805" shape-rendering="crispEdges" fill="#6699CC" fill-rule="evenodd" style="stroke: #6699CC;stroke-width: 3;stroke-linecap:round;stroke-linejoin:round"/>
			<polygon points="3606,2161 3614,2161 3614,3805 3606,3805" shape-rendering="crispEdges" fill="#6699CC" fill-rule="evenodd" style="stroke: #6699CC;stroke-width: 3;stroke-linecap:round;stroke-linejoin:round"/>
			<polygon points="3619,2157 3627,2157 3627,3805 3619,3805" shape-rendering="crispEdges" fill="#6699CC" fill-rule="evenodd" style="stroke: #6699CC;stroke-width: 3;stroke-linecap:round;stroke-linejoin:round"/>
			<polygon points="3632,2155 3640,2155 3640,3805 3632,3805" shape-rendering="crispEdges" fill="#6699CC" fill-rule="evenodd" style="stroke: #6699CC;stroke-width: 3;stroke-linecap:round;stroke-linejoin:round"/>
			<polygon points="3645,2152 3653,2152 3653,3805 3645,3805" shape-rendering="crispEdges" fill="#6699CC" fill-rule="evenodd" style="stroke: #6699CC;stroke-width: 3;stroke-linecap:round;stroke-linejoin:round"/>
			<polygon points="3659,2144 3667,2144 3667,3805 3659,3805" shape-rendering="crispEdges" fill="#6699CC" fill-rule="evenodd" style="stroke: #6699CC;stroke-width: 3;stroke-linecap:round;stroke-linejoin:round"/>
			<polygon points="3672,2144 3680,2144 3680,3805 3672,3805" shape-rendering="crispEdges" fill="#6699CC" fill-rule="evenodd" style="stroke: #6699CC;stroke-width: 3;stroke-linecap:round;stroke-linejoin:round"/>
			<polygon points="3685,2141 3693,2141 3693,3805 3685,3805" shape-rendering="crispEdges" fill="#6699CC" fill-rule="evenodd" style="stroke: #6699CC;stroke-width: 3;stroke-linecap:round;stroke-linejoin:round"/>
			<polygon points="3698,2139 3706,2139 3706,3805 3698,3805" shape-rendering="crispEdges" fill="#6699CC" fill-rule="evenodd" style="stroke: #6699CC;stroke-width: 3;stroke-linecap:round;stroke-linejoin:round"/>
			<polygon points="3712,2136 3719,2136 3719,3805 3712,3805" shape-rendering="crispEdges" fill="#6699CC" fill-rule="evenodd" style="stroke: #6699CC;stroke-width: 3;stroke-linecap:round;stroke-linejoin:round"/>
			<polygon points="3725,2133 3733,2133 3733,3805 3725,3805" shape-rendering="crispEdges" fill="#6699CC" fill-rule="evenodd" style="stroke: #6699CC;stroke-width: 3;stroke-linecap:round;stroke-linejoin:round"/>
			<polygon points="3738,2132 3746,2132 3746,3805 3738,3805" shape-rendering="crispEdges" fill="#6699CC" fill-rule="evenodd" style="stroke: #6699CC;stroke-width: 3;stroke-linecap:round;stroke-linejoin:round"/>
			<polygon points="3751,2129 3759,2129 3759,3805 3751,3805" shape-rendering="crispEdges" fill="#6699CC" fill-rule="evenodd" style="stroke: #6699CC;stroke-width: 3;stroke-linecap:round;stroke-linejoin:round"/>
			<polygon points="3764,2127 3772,2127 3772,3805 3764,3805" shape-rendering="crispEdges" fill="#6699CC" fill-rule="evenodd" style="stroke: #6699CC;stroke-width: 3;stroke-linecap:round;stroke-linejoin:round"/>
			<polygon points="3778,2127 3786,2127 3786,3805 3778,3805" shape-rendering="crispEdges" fill="#6699CC" fill-rule="evenodd" style="stroke: #6699CC;stroke-width: 3;stroke-linecap:round;stroke-linejoin:round"/>
			<polygon points="3791,2123 3799,2123 3799,3805 3791,3805" shape-rendering="crispEdges" fill="#6699CC" fill-rule="evenodd" style="stroke: #6699CC;stroke-width: 3;stroke-linecap:round;stroke-linejoin:round"/>
			<polygon points="3804,2120 3812,2120 3812,3805 3804,3805" shape-rendering="crispEdges" fill="#6699CC" fill-rule="evenodd" style="stroke: #6699CC;stroke-width: 3;stroke-linecap:round;stroke-linejoin:round"/>
			<polygon points="3817,2118 3825,2118 3825,3805 3817,3805" shape-rendering="crispEdges" fill="#6699CC" fill-rule="evenodd" style="stroke: #6699CC;stroke-width: 3;stroke-linecap:round;stroke-linejoin:round"/>
			<polygon points="3830,2116 3838,2116 3838,3805 3830,3805" shape-rendering="crispEdges" fill="#6699CC" fill-rule="evenodd" style="stroke: #6699CC;stroke-width: 3;stroke-linecap:round;stroke-linejoin:round"/>
			<polygon points="3844,2114 3852,2114 3852,3805 3844,3805" shape-rendering="crispEdges" fill="#6699CC" fill-rule="evenodd" style="stroke: #6699CC;stroke-width: 3;stroke-linecap:round;stroke-linejoin:round"/>
			<polygon points="3857,2113 3865,2113 3865,3805 3857,3805" shape-rendering="crispEdges" fill="#6699CC" fill-rule="evenodd" style="stroke: #6699CC;stroke-width: 3;stroke-linecap:round;stroke-linejoin:round"/>
			<polygon points="3870,2113 3878,2113 3878,3805 3870,3805" shape-rendering="crispEdges" fill="#6699CC" fill-rule="evenodd" style="stroke: #6699CC;stroke-width: 3;stroke-linecap:round;stroke-linejoin:round"/>
			<polygon points="3883,2113 3891,2113 3891,3805 3883,3805" shape-rendering="crispEdges" fill="#6699CC" fill-rule="evenodd" style="stroke: #6699CC;stroke-width: 3;stroke-linecap:round;stroke-linejoin:round"/>
			<polygon points="3897,2112 3904,2112 3904,3805 3897,3805" shape-rendering="crispEdges" fill="#6699CC" fill-rule="evenodd" style="stroke: #6699CC;stroke-width: 3;stroke-linecap:round;stroke-linejoin:round"/>
			<polygon points="3910,2111 3918,2111 3918,3805 3910,3805" shape-rendering="crispEdges" fill="#6699CC" fill-rule="evenodd" style="stroke: #6699CC;stroke-width: 3;stroke-linecap:round;stroke-linejoin:round"/>
			<polygon points="3923,2110 3931,2110 3931,3805 3923,3805" shape-rendering="crispEdges" fill="#6699CC" fill-rule="evenodd" style="stroke: #6699CC;stroke-width: 3;stroke-linecap:round;stroke-linejoin:round"/>
			<polygon points="3936,2110 3944,2110 3944,3805 3936,3805" shape-rendering="crispEdges" fill="#6699CC" fill-rule="evenodd" style="stroke: #6699CC;stroke-width: 3;stroke-linecap:round;stroke-linejoin:round"/>
			<polygon points="3949,2109 3957,2109 3957,3805 3949,3805" shape-rendering="crispEdges" fill="#6699CC" fill-rule="evenodd" style="stroke: #6699CC;stroke-width: 3;stroke-linecap:round;stroke-linejoin:round"/>
			<polygon points="3963,2109 3971,2109 3971,3805 3963,3805" shape-rendering="crispEdges" fill="#6699CC" fill-rule="evenodd" style="stroke: #6699CC;stroke-width: 3;stroke-linecap:round;stroke-linejoin:round"/>
			<polygon points="3976,2108 3984,2108 3984,3805 3976,3805" shape-rendering="crispEdges" fill="#6699CC" fill-rule="evenodd" style="stroke: #6699CC;stroke-width: 3;stroke-linecap:round;stroke-linejoin:round"/>
			<polygon points="3989,2108 3997,2108 3997,3805 3989,3805" shape-rendering="crispEdges" fill="#6699CC" fill-rule="evenodd" style="stroke: #6699CC;stroke-width: 3;stroke-linecap:round;stroke-linejoin:round"/>
		</g>
		<polyline points="2883,3805 6213,3805" style="stroke: black;stroke-width: 9;stroke-linecap:square;stroke-linejoin:round" fill="none"/>
		<polyline points="2883,3805 2883,3853" style="stroke: black;stroke-width: 9;stroke-linecap:butt;stroke-linejoin:round" fill="none"/>
		<polyline points="3993,3805 3993,3853" style="stroke: black;stroke-width: 9;stroke-linecap:butt;stroke-linejoin:round" fill="none"/>
		<polyline points="5103,3805 5103,3853" style="stroke: black;stroke-width: 9;stroke-linecap:butt;stroke-linejoin:round" fill="none"/>
		<polyline points="6213,3805 6213,3853" style="stroke: black;stroke-width: 9;stroke-linecap:butt;stroke-linejoin:round" fill="none"/>
		<polyline points="2883,3805 2883,1119" style="stroke: #515151;stroke-width: 9;stroke-linecap:square;stroke-linejoin:round" fill="none"/>
		<polyline points="2883,3805 2835,3805" style="stroke: #515151;stroke-width: 9;stroke-linecap:butt;stroke-linejoin:round" fill="none"/>
		<polyline points="2883,3278 2835,3278" style="stroke: #515151;stroke-width: 9;stroke-linecap:butt;stroke-linejoin:round" fill="none"/>
		<polyline points="2883,2752 2835,2752" style="stroke: #515151;stroke-width: 9;stroke-linecap:butt;stroke-linejoin:round" fill="none"/>
		<polyline points="2883,2225 2835,2225" style="stroke: #515151;stroke-width: 9;stroke-linecap:butt;stroke-linejoin:round" fill="none"/>
		<polyline points="2883,1698 2835,1698" style="stroke: #515151;stroke-width: 9;stroke-linecap:butt;stroke-linejoin:round" fill="none"/>
		<polyline points="2883,1172 2835,1172" style="stroke: #515151;stroke-width: 9;stroke-linecap:butt;stroke-linejoin:round" fill="none"/>
		<text x="2760" dominant-baseline="auto" y="3957" fill="black" font-family="宋体,'MS PGothic',SimSun" font-size="82" font-weight="400">
			<tspan x="2760" style="white-space:pre;font-kerning:none" xml:space="preserve">Jan 23</tspan>
		</text>
		<text x="3870" dominant-baseline="auto" y="3957" fill="black" font-family="宋体,'MS PGothic',SimSun" font-size="82" font-weight="400">
			<tspan x="3870" style="white-space:pre;font-kerning:none" xml:space="preserve">Apr 16</tspan>
		</text>
		<text x="5001" dominant-baseline="auto" y="3957" fill="black" font-family="宋体,'MS PGothic',SimSun" font-size="82" font-weight="400">
			<tspan x="5001" style="white-space:pre;font-kerning:none" xml:space="preserve">Jul 9</tspan>
		</text>
		<text x="6111" dominant-baseline="auto" y="3957" fill="black" font-family="宋体,'MS PGothic',SimSun" font-size="82" font-weight="400">
			<tspan x="6111" style="white-space:pre;font-kerning:none" xml:space="preserve">Oct 1</tspan>
		</text>
		<text x="2760" dominant-baseline="auto" y="3838" fill="#515151" font-family="宋体,'MS PGothic',SimSun" font-size="82" font-weight="400">
			<tspan x="2760" style="font-kerning:none">0</tspan>
		</text>
		<text x="2637" dominant-baseline="auto" y="3311" fill="#515151" font-family="宋体,'MS PGothic',SimSun" font-size="82" font-weight="400">
			<tspan x="2637" style="font-kerning:none">1000</tspan>
		</text>
		<text x="2637" dominant-baseline="auto" y="2785" fill="#515151" font-family="宋体,'MS PGothic',SimSun" font-size="82" font-weight="400">
			<tspan x="2637" style="font-kerning:none">2000</tspan>
		</text>
		<text x="2637" dominant-baseline="auto" y="2258" fill="#515151" font-family="宋体,'MS PGothic',SimSun" font-size="82" font-weight="400">
			<tspan x="2637" style="font-kerning:none">3000</tspan>
		</text>
		<text x="2637" dominant-baseline="auto" y="1731" fill="#515151" font-family="宋体,'MS PGothic',SimSun" font-size="82" font-weight="400">
			<tspan x="2637" style="font-kerning:none">4000</tspan>
		</text>
		<text x="2637" dominant-baseline="auto" y="1205" fill="#515151" font-family="宋体,'MS PGothic',SimSun" font-size="82" font-weight="400">
			<tspan x="2637" style="font-kerning:none">5000</tspan>
		</text>
		<text x="3831" dominant-baseline="auto" y="4069" fill="black" font-family="宋体,'MS PGothic',SimSun" font-size="70" font-weight="400">
			<tspan x="3831" style="white-space:pre;font-kerning:none" xml:space="preserve">Fig. 6. Hubei: Cumulative Death(forecast)</tspan>
		</text>
		<polyline points="5548,1698 5712,1698" style="stroke: #F14040;stroke-width: 6;stroke-linecap:round;stroke-linejoin:round" fill="none"/>
		<text x="5712" dominant-baseline="auto" y="1727" fill="black" font-family="宋体,'MS PGothic',SimSun" font-size="82" font-weight="400">
			<tspan x="5712" style="white-space:pre;font-kerning:none" xml:space="preserve"> most recent</tspan>
		</text>
		<polyline points="5548,1788 5712,1788" style="stroke: #1A6FDF;stroke-width: 6;stroke-linecap:round;stroke-linejoin:round" fill="none"/>
		<text x="5712" dominant-baseline="auto" y="1817" fill="black" font-family="宋体,'MS PGothic',SimSun" font-size="82" font-weight="400">
			<tspan x="5712" style="white-space:pre;font-kerning:none" xml:space="preserve"> 2 day</tspan>
		</text>
		<polyline points="5548,1878 5712,1878" style="stroke: #37AD6B;stroke-width: 6;stroke-linecap:round;stroke-linejoin:round" fill="none"/>
		<text x="5712" dominant-baseline="auto" y="1907" fill="black" font-family="宋体,'MS PGothic',SimSun" font-size="82" font-weight="400">
			<tspan x="5712" style="white-space:pre;font-kerning:none" xml:space="preserve"> 3</tspan>
		</text>
		<polyline points="5548,1968 5712,1968" style="stroke: #B177DE;stroke-width: 6;stroke-linecap:round;stroke-linejoin:round" fill="none"/>
		<text x="5712" dominant-baseline="auto" y="1997" fill="black" font-family="宋体,'MS PGothic',SimSun" font-size="82" font-weight="400">
			<tspan x="5712" style="white-space:pre;font-kerning:none" xml:space="preserve"> 4</tspan>
		</text>
		<polyline points="5548,2058 5712,2058" style="stroke: #CC9900;stroke-width: 6;stroke-linecap:round;stroke-linejoin:round" fill="none"/>
		<text x="5712" dominant-baseline="auto" y="2087" fill="black" font-family="宋体,'MS PGothic',SimSun" font-size="82" font-weight="400">
			<tspan x="5712" style="white-space:pre;font-kerning:none" xml:space="preserve"> 5</tspan>
		</text>
		<polyline points="5548,2148 5712,2148" style="stroke: #00CBCC;stroke-width: 6;stroke-linecap:round;stroke-linejoin:round" fill="none"/>
		<text x="5712" dominant-baseline="auto" y="2177" fill="black" font-family="宋体,'MS PGothic',SimSun" font-size="82" font-weight="400">
			<tspan x="5712" style="white-space:pre;font-kerning:none" xml:space="preserve"> 6</tspan>
		</text>
		<polyline points="5548,2238 5712,2238" style="stroke: #7D4E4E;stroke-width: 6;stroke-linecap:round;stroke-linejoin:round" fill="none"/>
		<text x="5712" dominant-baseline="auto" y="2267" fill="black" font-family="宋体,'MS PGothic',SimSun" font-size="82" font-weight="400">
			<tspan x="5712" style="white-space:pre;font-kerning:none" xml:space="preserve"> 7 day</tspan>
		</text>
		<polyline points="5548,2328 5712,2328" style="stroke: #8E8E00;stroke-width: 6;stroke-linecap:round;stroke-linejoin:round" fill="none"/>
		<text x="5712" dominant-baseline="auto" y="2357" fill="black" font-family="宋体,'MS PGothic',SimSun" font-size="82" font-weight="400">
			<tspan x="5712" style="white-space:pre;font-kerning:none" xml:space="preserve"> from beginning</tspan>
		</text>
		<text x="2408" dominant-baseline="auto" y="1466" fill="black" font-family="宋体,'MS PGothic',SimSun" font-size="82" font-weight="400">
			<tspan x="2408" style="white-space:pre;font-kerning:none" xml:space="preserve">Peak: 4512</tspan>
		</text>
		<polygon points="5546,2449 6418,2449 6418,2531 5546,2531" shape-rendering="crispEdges" fill="white" fill-rule="evenodd" style="stroke: black;stroke-width: 3;stroke-linecap:square;stroke-linejoin:miter;stroke-miterlimit:10"/>
		<text x="5547" dominant-baseline="auto" y="2513" fill="black" font-family="Times New Roman,'MS PGothic',SimSun" font-size="70" font-weight="400">
			<tspan x="5547" style="font-kerning:none">α</tspan>
		</text>
		<text x="5584" dominant-baseline="auto" y="2513" fill="black" font-family="宋体,'MS PGothic',SimSun" font-size="70" font-weight="400">
			<tspan x="5584" style="white-space:pre;font-kerning:none" xml:space="preserve">=0.05 </tspan>
		</text>
		<text x="5794" dominant-baseline="auto" y="2513" fill="black" font-family="Times New Roman,'MS PGothic',SimSun" font-size="70" font-weight="400">
			<tspan x="5794" style="font-kerning:none">γ</tspan>
		</text>
		<text x="5825" dominant-baseline="auto" y="2513" fill="black" font-family="宋体,'MS PGothic',SimSun" font-size="70" font-weight="400">
			<tspan x="5825" style="white-space:pre;font-kerning:none" xml:space="preserve">=0.2 </tspan>
		</text>
		<text x="6000" dominant-baseline="auto" y="2513" fill="black" font-family="Times New Roman,'MS PGothic',SimSun" font-size="70" font-weight="400">
			<tspan x="6000" style="font-kerning:none">δ</tspan>
		</text>
		<text x="6033" dominant-baseline="auto" y="2513" fill="black" font-family="宋体,'MS PGothic',SimSun" font-size="70" font-weight="400">
			<tspan x="6033" style="white-space:pre;font-kerning:none" xml:space="preserve">=0.01 </tspan>
		</text>
		<text x="6243" dominant-baseline="auto" y="2513" fill="black" font-family="Times New Roman,'MS PGothic',SimSun" font-size="70" font-weight="400">
			<tspan x="6243" style="font-kerning:none">θ</tspan>
		</text>
		<text x="6277" dominant-baseline="auto" y="2513" fill="black" font-family="宋体,'MS PGothic',SimSun" font-size="70" font-weight="400">
			<tspan x="6277" style="font-kerning:none">=0.1</tspan>
		</text>
	</svg>
</svg>

