<?xml version="1.0" encoding="UTF-8"?>
<!DOCTYPE svg PUBLIC "-//W3C//DTD SVG 1.1//EN" "http://www.w3.org/Graphics/SVG/1.1/DTD/svg11.dtd">
<!--Generated by Origin-->
<svg xmlns="http://www.w3.org/2000/svg" xmlns:xlink="http://www.w3.org/1999/xlink" viewBox="0,0 1030,789" width="8.583333in" height="6.575000in">
	<svg xmlns="http://www.w3.org/2000/svg" xmlns:xlink="http://www.w3.org/1999/xlink" viewBox="0,0 6432.99,4923.96" width="1028.99" height="786.999" x="0.00012207" y="0.00012207" preserveAspectRatio="none">
		<defs>
			<mask id="Cp_1">
				<rect x="1153" y="570" width="4390" height="3538" fill="white"/>
			</mask>
		</defs>
		<g mask="url(#Cp_1)">
			<rect x="0" y="0" width="6433" height="4924" visibility="hidden" fill="none" opacity="0"/>
			<polygon points="2091,4008 2111,4008 2111,4107 2091,4107" shape-rendering="crispEdges" fill="#6699CC" fill-rule="evenodd" style="stroke: #6699CC;stroke-width: 4;stroke-linecap:round;stroke-linejoin:round"/>
			<polygon points="2132,3881 2152,3881 2152,4107 2132,4107" shape-rendering="crispEdges" fill="#6699CC" fill-rule="evenodd" style="stroke: #6699CC;stroke-width: 4;stroke-linecap:round;stroke-linejoin:round"/>
			<polygon points="2173,3937 2194,3937 2194,4107 2173,4107" shape-rendering="crispEdges" fill="#6699CC" fill-rule="evenodd" style="stroke: #6699CC;stroke-width: 4;stroke-linecap:round;stroke-linejoin:round"/>
			<polygon points="2214,3767 2235,3767 2235,4107 2214,4107" shape-rendering="crispEdges" fill="#6699CC" fill-rule="evenodd" style="stroke: #6699CC;stroke-width: 4;stroke-linecap:round;stroke-linejoin:round"/>
			<polygon points="2255,3414 2276,3414 2276,4107 2255,4107" shape-rendering="crispEdges" fill="#6699CC" fill-rule="evenodd" style="stroke: #6699CC;stroke-width: 4;stroke-linecap:round;stroke-linejoin:round"/>
			<polygon points="2338,3584 2358,3584 2358,4107 2338,4107" shape-rendering="crispEdges" fill="#6699CC" fill-rule="evenodd" style="stroke: #6699CC;stroke-width: 4;stroke-linecap:round;stroke-linejoin:round"/>
			<polygon points="2379,3513 2400,3513 2400,4107 2379,4107" shape-rendering="crispEdges" fill="#6699CC" fill-rule="evenodd" style="stroke: #6699CC;stroke-width: 4;stroke-linecap:round;stroke-linejoin:round"/>
			<polygon points="2420,3470 2441,3470 2441,4107 2420,4107" shape-rendering="crispEdges" fill="#6699CC" fill-rule="evenodd" style="stroke: #6699CC;stroke-width: 4;stroke-linecap:round;stroke-linejoin:round"/>
			<polygon points="2461,2678 2482,2678 2482,4107 2461,4107" shape-rendering="crispEdges" fill="#6699CC" fill-rule="evenodd" style="stroke: #6699CC;stroke-width: 4;stroke-linecap:round;stroke-linejoin:round"/>
			<polygon points="2503,3202 2523,3202 2523,4107 2503,4107" shape-rendering="crispEdges" fill="#6699CC" fill-rule="evenodd" style="stroke: #6699CC;stroke-width: 4;stroke-linecap:round;stroke-linejoin:round"/>
			<polygon points="2544,3187 2564,3187 2564,4107 2544,4107" shape-rendering="crispEdges" fill="#6699CC" fill-rule="evenodd" style="stroke: #6699CC;stroke-width: 4;stroke-linecap:round;stroke-linejoin:round"/>
			<polygon points="2585,3117 2606,3117 2606,4107 2585,4107" shape-rendering="crispEdges" fill="#6699CC" fill-rule="evenodd" style="stroke: #6699CC;stroke-width: 4;stroke-linecap:round;stroke-linejoin:round"/>
			<polygon points="2626,3131 2647,3131 2647,4107 2626,4107" shape-rendering="crispEdges" fill="#6699CC" fill-rule="evenodd" style="stroke: #6699CC;stroke-width: 4;stroke-linecap:round;stroke-linejoin:round"/>
			<polygon points="2668,2961 2688,2961 2688,4107 2668,4107" shape-rendering="crispEdges" fill="#6699CC" fill-rule="evenodd" style="stroke: #6699CC;stroke-width: 4;stroke-linecap:round;stroke-linejoin:round"/>
			<polygon points="2709,2961 2729,2961 2729,4107 2709,4107" shape-rendering="crispEdges" fill="#6699CC" fill-rule="evenodd" style="stroke: #6699CC;stroke-width: 4;stroke-linecap:round;stroke-linejoin:round"/>
			<polygon points="2750,2820 2771,2820 2771,4107 2750,4107" shape-rendering="crispEdges" fill="#6699CC" fill-rule="evenodd" style="stroke: #6699CC;stroke-width: 4;stroke-linecap:round;stroke-linejoin:round"/>
			<polygon points="2791,2650 2812,2650 2812,4107 2791,4107" shape-rendering="crispEdges" fill="#6699CC" fill-rule="evenodd" style="stroke: #6699CC;stroke-width: 4;stroke-linecap:round;stroke-linejoin:round"/>
			<polygon points="2832,2777 2853,2777 2853,4107 2832,4107" shape-rendering="crispEdges" fill="#6699CC" fill-rule="evenodd" style="stroke: #6699CC;stroke-width: 4;stroke-linecap:round;stroke-linejoin:round"/>
			<polygon points="2915,683 2935,683 2935,4107 2915,4107" shape-rendering="crispEdges" fill="#6699CC" fill-rule="evenodd" style="stroke: #6699CC;stroke-width: 4;stroke-linecap:round;stroke-linejoin:round"/>
			<polygon points="2956,2027 2977,2027 2977,4107 2956,4107" shape-rendering="crispEdges" fill="#6699CC" fill-rule="evenodd" style="stroke: #6699CC;stroke-width: 4;stroke-linecap:round;stroke-linejoin:round"/>
			<polygon points="2997,2140 3018,2140 3018,4107 2997,4107" shape-rendering="crispEdges" fill="#6699CC" fill-rule="evenodd" style="stroke: #6699CC;stroke-width: 4;stroke-linecap:round;stroke-linejoin:round"/>
			<polygon points="3038,2692 3059,2692 3059,4107 3038,4107" shape-rendering="crispEdges" fill="#6699CC" fill-rule="evenodd" style="stroke: #6699CC;stroke-width: 4;stroke-linecap:round;stroke-linejoin:round"/>
			<polygon points="3080,2791 3100,2791 3100,4107 3080,4107" shape-rendering="crispEdges" fill="#6699CC" fill-rule="evenodd" style="stroke: #6699CC;stroke-width: 4;stroke-linecap:round;stroke-linejoin:round"/>
			<polygon points="3121,2239 3141,2239 3141,4107 3121,4107" shape-rendering="crispEdges" fill="#6699CC" fill-rule="evenodd" style="stroke: #6699CC;stroke-width: 4;stroke-linecap:round;stroke-linejoin:round"/>
			<polygon points="3162,2579 3183,2579 3183,4107 3162,4107" shape-rendering="crispEdges" fill="#6699CC" fill-rule="evenodd" style="stroke: #6699CC;stroke-width: 4;stroke-linecap:round;stroke-linejoin:round"/>
			<polygon points="3203,2480 3224,2480 3224,4107 3203,4107" shape-rendering="crispEdges" fill="#6699CC" fill-rule="evenodd" style="stroke: #6699CC;stroke-width: 4;stroke-linecap:round;stroke-linejoin:round"/>
			<polygon points="3286,1249 3306,1249 3306,4107 3286,4107" shape-rendering="crispEdges" fill="#6699CC" fill-rule="evenodd" style="stroke: #6699CC;stroke-width: 4;stroke-linecap:round;stroke-linejoin:round"/>
			<polygon points="3368,1999 3389,1999 3389,4107 3368,4107" shape-rendering="crispEdges" fill="#6699CC" fill-rule="evenodd" style="stroke: #6699CC;stroke-width: 4;stroke-linecap:round;stroke-linejoin:round"/>
			<polygon points="3409,3145 3430,3145 3430,4107 3409,4107" shape-rendering="crispEdges" fill="#6699CC" fill-rule="evenodd" style="stroke: #6699CC;stroke-width: 4;stroke-linecap:round;stroke-linejoin:round"/>
			<polygon points="3451,3371 3471,3371 3471,4107 3451,4107" shape-rendering="crispEdges" fill="#6699CC" fill-rule="evenodd" style="stroke: #6699CC;stroke-width: 4;stroke-linecap:round;stroke-linejoin:round"/>
			<polygon points="3492,3739 3512,3739 3512,4107 3492,4107" shape-rendering="crispEdges" fill="#6699CC" fill-rule="evenodd" style="stroke: #6699CC;stroke-width: 4;stroke-linecap:round;stroke-linejoin:round"/>
			<polygon points="3533,3527 3554,3527 3554,4107 3533,4107" shape-rendering="crispEdges" fill="#6699CC" fill-rule="evenodd" style="stroke: #6699CC;stroke-width: 4;stroke-linecap:round;stroke-linejoin:round"/>
			<polygon points="3574,3470 3595,3470 3595,4107 3574,4107" shape-rendering="crispEdges" fill="#6699CC" fill-rule="evenodd" style="stroke: #6699CC;stroke-width: 4;stroke-linecap:round;stroke-linejoin:round"/>
			<polygon points="3615,3626 3636,3626 3636,4107 3615,4107" shape-rendering="crispEdges" fill="#6699CC" fill-rule="evenodd" style="stroke: #6699CC;stroke-width: 4;stroke-linecap:round;stroke-linejoin:round"/>
			<polygon points="3657,3513 3677,3513 3677,4107 3657,4107" shape-rendering="crispEdges" fill="#6699CC" fill-rule="evenodd" style="stroke: #6699CC;stroke-width: 4;stroke-linecap:round;stroke-linejoin:round"/>
			<polygon points="3698,3654 3718,3654 3718,4107 3698,4107" shape-rendering="crispEdges" fill="#6699CC" fill-rule="evenodd" style="stroke: #6699CC;stroke-width: 4;stroke-linecap:round;stroke-linejoin:round"/>
			<polygon points="3739,3598 3760,3598 3760,4107 3739,4107" shape-rendering="crispEdges" fill="#6699CC" fill-rule="evenodd" style="stroke: #6699CC;stroke-width: 4;stroke-linecap:round;stroke-linejoin:round"/>
			<polygon points="3780,3668 3801,3668 3801,4107 3780,4107" shape-rendering="crispEdges" fill="#6699CC" fill-rule="evenodd" style="stroke: #6699CC;stroke-width: 4;stroke-linecap:round;stroke-linejoin:round"/>
			<polygon points="3821,3697 3842,3697 3842,4107 3821,4107" shape-rendering="crispEdges" fill="#6699CC" fill-rule="evenodd" style="stroke: #6699CC;stroke-width: 4;stroke-linecap:round;stroke-linejoin:round"/>
			<polygon points="3863,3711 3883,3711 3883,4107 3863,4107" shape-rendering="crispEdges" fill="#6699CC" fill-rule="evenodd" style="stroke: #6699CC;stroke-width: 4;stroke-linecap:round;stroke-linejoin:round"/>
			<polygon points="3904,3725 3924,3725 3924,4107 3904,4107" shape-rendering="crispEdges" fill="#6699CC" fill-rule="evenodd" style="stroke: #6699CC;stroke-width: 4;stroke-linecap:round;stroke-linejoin:round"/>
			<polygon points="3945,3796 3966,3796 3966,4107 3945,4107" shape-rendering="crispEdges" fill="#6699CC" fill-rule="evenodd" style="stroke: #6699CC;stroke-width: 4;stroke-linecap:round;stroke-linejoin:round"/>
			<polygon points="3986,3881 4007,3881 4007,4107 3986,4107" shape-rendering="crispEdges" fill="#6699CC" fill-rule="evenodd" style="stroke: #6699CC;stroke-width: 4;stroke-linecap:round;stroke-linejoin:round"/>
			<polygon points="4027,3796 4048,3796 4048,4107 4027,4107" shape-rendering="crispEdges" fill="#6699CC" fill-rule="evenodd" style="stroke: #6699CC;stroke-width: 4;stroke-linecap:round;stroke-linejoin:round"/>
			<polygon points="4069,3966 4089,3966 4089,4107 4069,4107" shape-rendering="crispEdges" fill="#6699CC" fill-rule="evenodd" style="stroke: #6699CC;stroke-width: 4;stroke-linecap:round;stroke-linejoin:round"/>
			<polygon points="4110,4022 4131,4022 4131,4107 4110,4107" shape-rendering="crispEdges" fill="#6699CC" fill-rule="evenodd" style="stroke: #6699CC;stroke-width: 4;stroke-linecap:round;stroke-linejoin:round"/>
			<polygon points="4151,3923 4172,3923 4172,4107 4151,4107" shape-rendering="crispEdges" fill="#6699CC" fill-rule="evenodd" style="stroke: #6699CC;stroke-width: 4;stroke-linecap:round;stroke-linejoin:round"/>
			<polygon points="4192,3966 4213,3966 4213,4107 4192,4107" shape-rendering="crispEdges" fill="#6699CC" fill-rule="evenodd" style="stroke: #6699CC;stroke-width: 4;stroke-linecap:round;stroke-linejoin:round"/>
			<polygon points="4234,3909 4254,3909 4254,4107 4234,4107" shape-rendering="crispEdges" fill="#6699CC" fill-rule="evenodd" style="stroke: #6699CC;stroke-width: 4;stroke-linecap:round;stroke-linejoin:round"/>
			<polygon points="4275,3937 4295,3937 4295,4107 4275,4107" shape-rendering="crispEdges" fill="#6699CC" fill-rule="evenodd" style="stroke: #6699CC;stroke-width: 4;stroke-linecap:round;stroke-linejoin:round"/>
			<polygon points="4316,3951 4337,3951 4337,4107 4316,4107" shape-rendering="crispEdges" fill="#6699CC" fill-rule="evenodd" style="stroke: #6699CC;stroke-width: 4;stroke-linecap:round;stroke-linejoin:round"/>
			<polygon points="4357,3994 4378,3994 4378,4107 4357,4107" shape-rendering="crispEdges" fill="#6699CC" fill-rule="evenodd" style="stroke: #6699CC;stroke-width: 4;stroke-linecap:round;stroke-linejoin:round"/>
			<polygon points="4398,4065 4419,4065 4419,4107 4398,4107" shape-rendering="crispEdges" fill="#6699CC" fill-rule="evenodd" style="stroke: #6699CC;stroke-width: 4;stroke-linecap:round;stroke-linejoin:round"/>
			<polygon points="4440,4022 4460,4022 4460,4107 4440,4107" shape-rendering="crispEdges" fill="#6699CC" fill-rule="evenodd" style="stroke: #6699CC;stroke-width: 4;stroke-linecap:round;stroke-linejoin:round"/>
			<polygon points="4481,3909 4501,3909 4501,4107 4481,4107" shape-rendering="crispEdges" fill="#6699CC" fill-rule="evenodd" style="stroke: #6699CC;stroke-width: 4;stroke-linecap:round;stroke-linejoin:round"/>
			<polygon points="4563,4008 4584,4008 4584,4107 4563,4107" shape-rendering="crispEdges" fill="#6699CC" fill-rule="evenodd" style="stroke: #6699CC;stroke-width: 4;stroke-linecap:round;stroke-linejoin:round"/>
			<polygon points="4604,4065 4625,4065 4625,4107 4604,4107" shape-rendering="crispEdges" fill="#6699CC" fill-rule="evenodd" style="stroke: #6699CC;stroke-width: 4;stroke-linecap:round;stroke-linejoin:round"/>
			<polygon points="4646,4022 4666,4022 4666,4107 4646,4107" shape-rendering="crispEdges" fill="#6699CC" fill-rule="evenodd" style="stroke: #6699CC;stroke-width: 4;stroke-linecap:round;stroke-linejoin:round"/>
			<polygon points="4687,4036 4707,4036 4707,4107 4687,4107" shape-rendering="crispEdges" fill="#6699CC" fill-rule="evenodd" style="stroke: #6699CC;stroke-width: 4;stroke-linecap:round;stroke-linejoin:round"/>
			<polygon points="4728,4065 4749,4065 4749,4107 4728,4107" shape-rendering="crispEdges" fill="#6699CC" fill-rule="evenodd" style="stroke: #6699CC;stroke-width: 4;stroke-linecap:round;stroke-linejoin:round"/>
			<polygon points="4769,4036 4790,4036 4790,4107 4769,4107" shape-rendering="crispEdges" fill="#6699CC" fill-rule="evenodd" style="stroke: #6699CC;stroke-width: 4;stroke-linecap:round;stroke-linejoin:round"/>
			<polygon points="4811,4050 4831,4050 4831,4107 4811,4107" shape-rendering="crispEdges" fill="#6699CC" fill-rule="evenodd" style="stroke: #6699CC;stroke-width: 4;stroke-linecap:round;stroke-linejoin:round"/>
			<polygon points="4852,4093 4872,4093 4872,4107 4852,4107" shape-rendering="crispEdges" fill="#6699CC" fill-rule="evenodd" style="stroke: #6699CC;stroke-width: 4;stroke-linecap:round;stroke-linejoin:round"/>
			<polygon points="4893,4022 4914,4022 4914,4107 4893,4107" shape-rendering="crispEdges" fill="#6699CC" fill-rule="evenodd" style="stroke: #6699CC;stroke-width: 4;stroke-linecap:round;stroke-linejoin:round"/>
			<polygon points="4934,4022 4955,4022 4955,4107 4934,4107" shape-rendering="crispEdges" fill="#6699CC" fill-rule="evenodd" style="stroke: #6699CC;stroke-width: 4;stroke-linecap:round;stroke-linejoin:round"/>
			<polygon points="4975,4050 4996,4050 4996,4107 4975,4107" shape-rendering="crispEdges" fill="#6699CC" fill-rule="evenodd" style="stroke: #6699CC;stroke-width: 4;stroke-linecap:round;stroke-linejoin:round"/>
			<polygon points="5017,4050 5037,4050 5037,4107 5017,4107" shape-rendering="crispEdges" fill="#6699CC" fill-rule="evenodd" style="stroke: #6699CC;stroke-width: 4;stroke-linecap:round;stroke-linejoin:round"/>
			<polygon points="5058,4065 5078,4065 5078,4107 5058,4107" shape-rendering="crispEdges" fill="#6699CC" fill-rule="evenodd" style="stroke: #6699CC;stroke-width: 4;stroke-linecap:round;stroke-linejoin:round"/>
			<polygon points="5099,4079 5120,4079 5120,4107 5099,4107" shape-rendering="crispEdges" fill="#6699CC" fill-rule="evenodd" style="stroke: #6699CC;stroke-width: 4;stroke-linecap:round;stroke-linejoin:round"/>
			<polygon points="5181,4093 5202,4093 5202,4107 5181,4107" shape-rendering="crispEdges" fill="#6699CC" fill-rule="evenodd" style="stroke: #6699CC;stroke-width: 4;stroke-linecap:round;stroke-linejoin:round"/>
			<polygon points="5223,4079 5243,4079 5243,4107 5223,4107" shape-rendering="crispEdges" fill="#6699CC" fill-rule="evenodd" style="stroke: #6699CC;stroke-width: 4;stroke-linecap:round;stroke-linejoin:round"/>
			<polygon points="5264,4093 5284,4093 5284,4107 5264,4107" shape-rendering="crispEdges" fill="#6699CC" fill-rule="evenodd" style="stroke: #6699CC;stroke-width: 4;stroke-linecap:round;stroke-linejoin:round"/>
			<polygon points="5305,4065 5326,4065 5326,4107 5305,4107" shape-rendering="crispEdges" fill="#6699CC" fill-rule="evenodd" style="stroke: #6699CC;stroke-width: 4;stroke-linecap:round;stroke-linejoin:round"/>
			<polygon points="5387,4079 5408,4079 5408,4107 5387,4107" shape-rendering="crispEdges" fill="#6699CC" fill-rule="evenodd" style="stroke: #6699CC;stroke-width: 4;stroke-linecap:round;stroke-linejoin:round"/>
			<polygon points="5470,4093 5490,4093 5490,4107 5470,4107" shape-rendering="crispEdges" fill="#6699CC" fill-rule="evenodd" style="stroke: #6699CC;stroke-width: 4;stroke-linecap:round;stroke-linejoin:round"/>
			<polyline points="2060,4105 2101,4024 2142,3944 2183,3863 2224,3782 2266,3700 2307,3618 2348,3534 2389,3449 2431,3364 2472,3280 2513,3200 2554,3123 2595,3047 2637,2972 2678,2897 2719,2824 2760,2752 2801,2684 2843,2622 2884,2566 2925,2519 2966,2492 3008,2485 3049,2497 3090,2525 3131,2567 3172,2622 3214,2687 3255,2761 3296,2839 3337,2924 3378,3012 3420,3104 3461,3195 3502,3281 3543,3361 3584,3433 3626,3497 3667,3554 3708,3604 3749,3649 3791,3690 3832,3726 3873,3760 3914,3792 3955,3821 3997,3848 4038,3873 4079,3896 4120,3916 4161,3933 4203,3948 4244,3961 4285,3973 4326,3984 4367,3994 4409,4003 4450,4011 4491,4018 4532,4025 4574,4030 4615,4035 4656,4039 4697,4042 4738,4045 4780,4048 4821,4051 4862,4053 4903,4055 4944,4058 4986,4061 5027,4064 5068,4068 5109,4072 5150,4076 5192,4079 5233,4082 5274,4085 5315,4088 5357,4091 5398,4094 5439,4097 5480,4100 5521,4103" style="stroke: black;stroke-width: 11;stroke-linecap:round;stroke-linejoin:round" fill="none"/>
			<path d="M 2060,4105 L 2061,4105" style="stroke: black;stroke-width: 1" fill="none"/>
			<path d="M 2101,4024 L 2102,4024" style="stroke: black;stroke-width: 1" fill="none"/>
			<path d="M 2142,3944 L 2143,3944" style="stroke: black;stroke-width: 1" fill="none"/>
			<path d="M 2183,3863 L 2184,3863" style="stroke: black;stroke-width: 1" fill="none"/>
			<path d="M 2224,3782 L 2225,3782" style="stroke: black;stroke-width: 1" fill="none"/>
			<path d="M 2266,3700 L 2267,3700" style="stroke: black;stroke-width: 1" fill="none"/>
			<path d="M 2307,3618 L 2308,3618" style="stroke: black;stroke-width: 1" fill="none"/>
			<path d="M 2348,3534 L 2349,3534" style="stroke: black;stroke-width: 1" fill="none"/>
			<path d="M 2389,3449 L 2390,3449" style="stroke: black;stroke-width: 1" fill="none"/>
			<path d="M 2431,3364 L 2432,3364" style="stroke: black;stroke-width: 1" fill="none"/>
			<path d="M 2472,3280 L 2473,3280" style="stroke: black;stroke-width: 1" fill="none"/>
			<path d="M 2513,3200 L 2514,3200" style="stroke: black;stroke-width: 1" fill="none"/>
			<path d="M 2554,3123 L 2555,3123" style="stroke: black;stroke-width: 1" fill="none"/>
			<path d="M 2595,3047 L 2596,3047" style="stroke: black;stroke-width: 1" fill="none"/>
			<path d="M 2637,2972 L 2638,2972" style="stroke: black;stroke-width: 1" fill="none"/>
			<path d="M 2678,2897 L 2679,2897" style="stroke: black;stroke-width: 1" fill="none"/>
			<path d="M 2719,2824 L 2720,2824" style="stroke: black;stroke-width: 1" fill="none"/>
			<path d="M 2760,2752 L 2761,2752" style="stroke: black;stroke-width: 1" fill="none"/>
			<path d="M 2801,2684 L 2802,2684" style="stroke: black;stroke-width: 1" fill="none"/>
			<path d="M 2843,2622 L 2844,2622" style="stroke: black;stroke-width: 1" fill="none"/>
			<path d="M 2884,2566 L 2885,2566" style="stroke: black;stroke-width: 1" fill="none"/>
			<path d="M 2925,2519 L 2926,2519" style="stroke: black;stroke-width: 1" fill="none"/>
			<path d="M 2966,2492 L 2967,2492" style="stroke: black;stroke-width: 1" fill="none"/>
			<path d="M 3008,2485 L 3009,2485" style="stroke: black;stroke-width: 1" fill="none"/>
			<path d="M 3049,2497 L 3050,2497" style="stroke: black;stroke-width: 1" fill="none"/>
			<path d="M 3090,2525 L 3091,2525" style="stroke: black;stroke-width: 1" fill="none"/>
			<path d="M 3131,2567 L 3132,2567" style="stroke: black;stroke-width: 1" fill="none"/>
			<path d="M 3172,2622 L 3173,2622" style="stroke: black;stroke-width: 1" fill="none"/>
			<path d="M 3214,2687 L 3215,2687" style="stroke: black;stroke-width: 1" fill="none"/>
			<path d="M 3255,2761 L 3256,2761" style="stroke: black;stroke-width: 1" fill="none"/>
			<path d="M 3296,2839 L 3297,2839" style="stroke: black;stroke-width: 1" fill="none"/>
			<path d="M 3337,2924 L 3338,2924" style="stroke: black;stroke-width: 1" fill="none"/>
			<path d="M 3378,3012 L 3379,3012" style="stroke: black;stroke-width: 1" fill="none"/>
			<path d="M 3420,3104 L 3421,3104" style="stroke: black;stroke-width: 1" fill="none"/>
			<path d="M 3461,3195 L 3462,3195" style="stroke: black;stroke-width: 1" fill="none"/>
			<path d="M 3502,3281 L 3503,3281" style="stroke: black;stroke-width: 1" fill="none"/>
			<path d="M 3543,3361 L 3544,3361" style="stroke: black;stroke-width: 1" fill="none"/>
			<path d="M 3584,3433 L 3585,3433" style="stroke: black;stroke-width: 1" fill="none"/>
			<path d="M 3626,3497 L 3627,3497" style="stroke: black;stroke-width: 1" fill="none"/>
			<path d="M 3667,3554 L 3668,3554" style="stroke: black;stroke-width: 1" fill="none"/>
			<path d="M 3708,3604 L 3709,3604" style="stroke: black;stroke-width: 1" fill="none"/>
			<path d="M 3749,3649 L 3750,3649" style="stroke: black;stroke-width: 1" fill="none"/>
			<path d="M 3791,3690 L 3792,3690" style="stroke: black;stroke-width: 1" fill="none"/>
			<path d="M 3832,3726 L 3833,3726" style="stroke: black;stroke-width: 1" fill="none"/>
			<path d="M 3873,3760 L 3874,3760" style="stroke: black;stroke-width: 1" fill="none"/>
			<path d="M 3914,3792 L 3915,3792" style="stroke: black;stroke-width: 1" fill="none"/>
			<path d="M 3955,3821 L 3956,3821" style="stroke: black;stroke-width: 1" fill="none"/>
			<path d="M 3997,3848 L 3998,3848" style="stroke: black;stroke-width: 1" fill="none"/>
			<path d="M 4038,3873 L 4039,3873" style="stroke: black;stroke-width: 1" fill="none"/>
			<path d="M 4079,3896 L 4080,3896" style="stroke: black;stroke-width: 1" fill="none"/>
			<path d="M 4120,3916 L 4121,3916" style="stroke: black;stroke-width: 1" fill="none"/>
			<path d="M 4161,3933 L 4162,3933" style="stroke: black;stroke-width: 1" fill="none"/>
			<path d="M 4203,3948 L 4204,3948" style="stroke: black;stroke-width: 1" fill="none"/>
			<path d="M 4244,3961 L 4245,3961" style="stroke: black;stroke-width: 1" fill="none"/>
			<path d="M 4285,3973 L 4286,3973" style="stroke: black;stroke-width: 1" fill="none"/>
			<path d="M 4326,3984 L 4327,3984" style="stroke: black;stroke-width: 1" fill="none"/>
			<path d="M 4367,3994 L 4368,3994" style="stroke: black;stroke-width: 1" fill="none"/>
			<path d="M 4409,4003 L 4410,4003" style="stroke: black;stroke-width: 1" fill="none"/>
			<path d="M 4450,4011 L 4451,4011" style="stroke: black;stroke-width: 1" fill="none"/>
			<path d="M 4491,4018 L 4492,4018" style="stroke: black;stroke-width: 1" fill="none"/>
			<path d="M 4532,4025 L 4533,4025" style="stroke: black;stroke-width: 1" fill="none"/>
			<path d="M 4574,4030 L 4575,4030" style="stroke: black;stroke-width: 1" fill="none"/>
			<path d="M 4615,4035 L 4616,4035" style="stroke: black;stroke-width: 1" fill="none"/>
			<path d="M 4656,4039 L 4657,4039" style="stroke: black;stroke-width: 1" fill="none"/>
			<path d="M 4697,4042 L 4698,4042" style="stroke: black;stroke-width: 1" fill="none"/>
			<path d="M 4738,4045 L 4739,4045" style="stroke: black;stroke-width: 1" fill="none"/>
			<path d="M 4780,4048 L 4781,4048" style="stroke: black;stroke-width: 1" fill="none"/>
			<path d="M 4821,4051 L 4822,4051" style="stroke: black;stroke-width: 1" fill="none"/>
			<path d="M 4862,4053 L 4863,4053" style="stroke: black;stroke-width: 1" fill="none"/>
			<path d="M 4903,4055 L 4904,4055" style="stroke: black;stroke-width: 1" fill="none"/>
			<path d="M 4944,4058 L 4945,4058" style="stroke: black;stroke-width: 1" fill="none"/>
			<path d="M 4986,4061 L 4987,4061" style="stroke: black;stroke-width: 1" fill="none"/>
			<path d="M 5027,4064 L 5028,4064" style="stroke: black;stroke-width: 1" fill="none"/>
			<path d="M 5068,4068 L 5069,4068" style="stroke: black;stroke-width: 1" fill="none"/>
			<path d="M 5109,4072 L 5110,4072" style="stroke: black;stroke-width: 1" fill="none"/>
			<path d="M 5150,4076 L 5151,4076" style="stroke: black;stroke-width: 1" fill="none"/>
			<path d="M 5192,4079 L 5193,4079" style="stroke: black;stroke-width: 1" fill="none"/>
			<path d="M 5233,4082 L 5234,4082" style="stroke: black;stroke-width: 1" fill="none"/>
			<path d="M 5274,4085 L 5275,4085" style="stroke: black;stroke-width: 1" fill="none"/>
			<path d="M 5315,4088 L 5316,4088" style="stroke: black;stroke-width: 1" fill="none"/>
			<path d="M 5357,4091 L 5358,4091" style="stroke: black;stroke-width: 1" fill="none"/>
			<path d="M 5398,4094 L 5399,4094" style="stroke: black;stroke-width: 1" fill="none"/>
			<path d="M 5439,4097 L 5440,4097" style="stroke: black;stroke-width: 1" fill="none"/>
			<path d="M 5480,4100 L 5481,4100" style="stroke: black;stroke-width: 1" fill="none"/>
			<path d="M 5521,4103 L 5522,4103" style="stroke: black;stroke-width: 1" fill="none"/>
		</g>
		<polyline points="1153,4107 5542,4107" style="stroke: black;stroke-width: 13;stroke-linecap:square;stroke-linejoin:round" fill="none"/>
		<polyline points="1153,4107 1153,4176" style="stroke: black;stroke-width: 13;stroke-linecap:butt;stroke-linejoin:round" fill="none"/>
		<polyline points="2431,4107 2431,4176" style="stroke: black;stroke-width: 13;stroke-linecap:butt;stroke-linejoin:round" fill="none"/>
		<polyline points="3626,4107 3626,4176" style="stroke: black;stroke-width: 13;stroke-linecap:butt;stroke-linejoin:round" fill="none"/>
		<polyline points="4903,4107 4903,4176" style="stroke: black;stroke-width: 13;stroke-linecap:butt;stroke-linejoin:round" fill="none"/>
		<polyline points="1153,4107 1153,570" style="stroke: #476B8E;stroke-width: 13;stroke-linecap:square;stroke-linejoin:round" fill="none"/>
		<polyline points="1153,3753 1119,3753" style="stroke: #476B8E;stroke-width: 13;stroke-linecap:butt;stroke-linejoin:round" fill="none"/>
		<polyline points="1153,3046 1119,3046" style="stroke: #476B8E;stroke-width: 13;stroke-linecap:butt;stroke-linejoin:round" fill="none"/>
		<polyline points="1153,2339 1119,2339" style="stroke: #476B8E;stroke-width: 13;stroke-linecap:butt;stroke-linejoin:round" fill="none"/>
		<polyline points="1153,1631 1119,1631" style="stroke: #476B8E;stroke-width: 13;stroke-linecap:butt;stroke-linejoin:round" fill="none"/>
		<polyline points="1153,924 1119,924" style="stroke: #476B8E;stroke-width: 13;stroke-linecap:butt;stroke-linejoin:round" fill="none"/>
		<polyline points="1153,4107 1084,4107" style="stroke: #476B8E;stroke-width: 13;stroke-linecap:butt;stroke-linejoin:round" fill="none"/>
		<polyline points="1153,3400 1084,3400" style="stroke: #476B8E;stroke-width: 13;stroke-linecap:butt;stroke-linejoin:round" fill="none"/>
		<polyline points="1153,2692 1084,2692" style="stroke: #476B8E;stroke-width: 13;stroke-linecap:butt;stroke-linejoin:round" fill="none"/>
		<polyline points="1153,1985 1084,1985" style="stroke: #476B8E;stroke-width: 13;stroke-linecap:butt;stroke-linejoin:round" fill="none"/>
		<polyline points="1153,1277 1084,1277" style="stroke: #476B8E;stroke-width: 13;stroke-linecap:butt;stroke-linejoin:round" fill="none"/>
		<polyline points="1153,570 1084,570" style="stroke: #476B8E;stroke-width: 13;stroke-linecap:butt;stroke-linejoin:round" fill="none"/>
		<text x="1065" dominant-baseline="auto" y="4325" fill="black" font-family="宋体,'MS PGothic',SimSun" font-size="117" font-weight="400">
			<tspan x="1065" style="font-kerning:none">Jan</tspan>
		</text>
		<text x="2343" dominant-baseline="auto" y="4325" fill="black" font-family="宋体,'MS PGothic',SimSun" font-size="117" font-weight="400">
			<tspan x="2343" style="font-kerning:none">Feb</tspan>
		</text>
		<text x="3538" dominant-baseline="auto" y="4325" fill="black" font-family="宋体,'MS PGothic',SimSun" font-size="117" font-weight="400">
			<tspan x="3538" style="font-kerning:none">Mar</tspan>
		</text>
		<text x="4815" dominant-baseline="auto" y="4325" fill="black" font-family="宋体,'MS PGothic',SimSun" font-size="117" font-weight="400">
			<tspan x="4815" style="font-kerning:none">Apr</tspan>
		</text>
		<text x="977" dominant-baseline="auto" y="4155" fill="#476B8E" font-family="宋体,'MS PGothic',SimSun" font-size="117" font-weight="400">
			<tspan x="977" style="font-kerning:none">0</tspan>
		</text>
		<text x="918" dominant-baseline="auto" y="3448" fill="#476B8E" font-family="宋体,'MS PGothic',SimSun" font-size="117" font-weight="400">
			<tspan x="918" style="font-kerning:none">50</tspan>
		</text>
		<text x="859" dominant-baseline="auto" y="2740" fill="#476B8E" font-family="宋体,'MS PGothic',SimSun" font-size="117" font-weight="400">
			<tspan x="859" style="font-kerning:none">100</tspan>
		</text>
		<text x="859" dominant-baseline="auto" y="2033" fill="#476B8E" font-family="宋体,'MS PGothic',SimSun" font-size="117" font-weight="400">
			<tspan x="859" style="font-kerning:none">150</tspan>
		</text>
		<text x="859" dominant-baseline="auto" y="1325" fill="#476B8E" font-family="宋体,'MS PGothic',SimSun" font-size="117" font-weight="400">
			<tspan x="859" style="font-kerning:none">200</tspan>
		</text>
		<text x="859" dominant-baseline="auto" y="618" fill="#476B8E" font-family="宋体,'MS PGothic',SimSun" font-size="117" font-weight="400">
			<tspan x="859" style="font-kerning:none">250</tspan>
		</text>
		<text x="1972" dominant-baseline="auto" y="4494" fill="black" font-family="宋体,'MS PGothic',SimSun" font-size="100" font-weight="400">
			<tspan x="1972" style="white-space:pre;font-kerning:none" xml:space="preserve">Fig. 1. Hubei: Daily death and Daily death(HP-Filtered)</tspan>
		</text>
		<text x="999" dominant-baseline="auto" y="2624" fill="black" font-family="宋体,'MS PGothic',SimSun" font-size="9" font-weight="400">
			<tspan x="999" style="font-kerning:none">d</tspan>
		</text>
		<polygon points="4425,751 4653,751 4653,862 4425,862" shape-rendering="crispEdges" fill="#6699CC" fill-rule="evenodd" style="stroke: #6699CC;stroke-width: 4;stroke-linecap:round;stroke-linejoin:round"/>
		<text x="4656" dominant-baseline="auto" y="849" fill="black" font-family="宋体,'MS PGothic',SimSun" font-size="117" font-weight="400">
			<tspan x="4656" style="white-space:pre;font-kerning:none" xml:space="preserve"> </tspan>
		</text>
		<text x="4715" dominant-baseline="auto" y="849" fill="black" font-family="宋体,'MS PGothic',SimSun" font-size="117" font-weight="400">
			<tspan x="4715" style="font-kerning:none">d</tspan>
		</text>
		<polyline points="4422,935 4656,935" style="stroke: black;stroke-width: 11;stroke-linecap:round;stroke-linejoin:round" fill="none"/>
		<path d="M 4539,935 L 4539,935" style="stroke: black;stroke-width: 1" fill="none"/>
		<text x="4656" dominant-baseline="auto" y="978" fill="black" font-family="宋体,'MS PGothic',SimSun" font-size="117" font-weight="400">
			<tspan x="4656" style="white-space:pre;font-kerning:none" xml:space="preserve"> </tspan>
		</text>
		<text x="4715" dominant-baseline="auto" y="978" fill="black" font-family="宋体,'MS PGothic',SimSun" font-size="117" font-weight="400">
			<tspan x="4715" style="font-kerning:none">d(HP-filtered)</tspan>
		</text>
		<polygon points="4434,1142 5646,1142 5646,1283 4434,1283" shape-rendering="crispEdges" fill="white" fill-rule="evenodd" style="stroke: black;stroke-width: 4;stroke-linecap:square;stroke-linejoin:miter;stroke-miterlimit:10"/>
		<text x="4447" dominant-baseline="auto" y="1246" fill="black" font-family="Times New Roman,'MS PGothic',SimSun" font-size="100" font-weight="400">
			<tspan x="4447" style="font-kerning:none">δ</tspan>
		</text>
		<text x="4494" dominant-baseline="auto" y="1246" fill="black" font-family="宋体,'MS PGothic',SimSun" font-size="100" font-weight="400">
			<tspan x="4494" style="white-space:pre;font-kerning:none" xml:space="preserve">=0.01 </tspan>
		</text>
		<text x="4794" dominant-baseline="auto" y="1246" fill="black" font-family="Times New Roman,'MS PGothic',SimSun" font-size="100" font-weight="400">
			<tspan x="4794" style="font-kerning:none">θ</tspan>
		</text>
		<text x="4842" dominant-baseline="auto" y="1246" fill="black" font-family="宋体,'MS PGothic',SimSun" font-size="100" font-weight="400">
			<tspan x="4842" style="white-space:pre;font-kerning:none" xml:space="preserve">=0.1 </tspan>
		</text>
		<text x="5092" dominant-baseline="auto" y="1246" fill="black" font-family="Times New Roman,'MS PGothic',SimSun" font-size="100" font-weight="400">
			<tspan x="5092" style="font-kerning:none">γ</tspan>
		</text>
		<text x="5136" dominant-baseline="auto" y="1246" fill="black" font-family="宋体,'MS PGothic',SimSun" font-size="100" font-weight="400">
			<tspan x="5136" style="white-space:pre;font-kerning:none" xml:space="preserve">=0.2 </tspan>
		</text>
		<text x="5386" dominant-baseline="auto" y="1246" fill="black" font-family="Times New Roman,'MS PGothic',SimSun" font-size="100" font-weight="400">
			<tspan x="5386" style="font-kerning:none">λ</tspan>
		</text>
		<text x="5434" dominant-baseline="auto" y="1246" fill="black" font-family="宋体,'MS PGothic',SimSun" font-size="100" font-weight="400">
			<tspan x="5434" style="font-kerning:none">=200</tspan>
		</text>
	</svg>
</svg>

