<?xml version="1.0" encoding="UTF-8"?>
<!DOCTYPE svg PUBLIC "-//W3C//DTD SVG 1.1//EN" "http://www.w3.org/Graphics/SVG/1.1/DTD/svg11.dtd">
<!--Generated by Origin-->
<svg xmlns="http://www.w3.org/2000/svg" xmlns:xlink="http://www.w3.org/1999/xlink" viewBox="0,0 1030,789" width="8.583333in" height="6.575000in">
	<svg xmlns="http://www.w3.org/2000/svg" xmlns:xlink="http://www.w3.org/1999/xlink" viewBox="0,0 6432.99,4923.96" width="1028.99" height="786.999" x="0.00012207" y="0.00012207" preserveAspectRatio="none">
		<defs>
			<mask id="Cp_1">
				<rect x="1152" y="572" width="4388" height="3537" fill="white"/>
			</mask>
		</defs>
		<g mask="url(#Cp_1)">
			<rect x="0" y="0" width="6433" height="4924" visibility="hidden" fill="none" opacity="0"/>
			<polygon points="1191,1082 1217,1082 1217,2340 1191,2340" shape-rendering="crispEdges" fill="#6699CC" fill-rule="evenodd" style="stroke: #6699CC;stroke-width: 8;stroke-linecap:round;stroke-linejoin:round"/>
			<polygon points="1243,1082 1270,1082 1270,2340 1243,2340" shape-rendering="crispEdges" fill="#6699CC" fill-rule="evenodd" style="stroke: #6699CC;stroke-width: 8;stroke-linecap:round;stroke-linejoin:round"/>
			<polygon points="1296,1081 1322,1081 1322,2340 1296,2340" shape-rendering="crispEdges" fill="#6699CC" fill-rule="evenodd" style="stroke: #6699CC;stroke-width: 8;stroke-linecap:round;stroke-linejoin:round"/>
			<polygon points="1348,1074 1374,1074 1374,2340 1348,2340" shape-rendering="crispEdges" fill="#6699CC" fill-rule="evenodd" style="stroke: #6699CC;stroke-width: 8;stroke-linecap:round;stroke-linejoin:round"/>
			<polygon points="1400,1067 1426,1067 1426,2340 1400,2340" shape-rendering="crispEdges" fill="#6699CC" fill-rule="evenodd" style="stroke: #6699CC;stroke-width: 8;stroke-linecap:round;stroke-linejoin:round"/>
			<polygon points="1452,1059 1478,1059 1478,2340 1452,2340" shape-rendering="crispEdges" fill="#6699CC" fill-rule="evenodd" style="stroke: #6699CC;stroke-width: 8;stroke-linecap:round;stroke-linejoin:round"/>
			<polygon points="1505,1027 1531,1027 1531,2340 1505,2340" shape-rendering="crispEdges" fill="#6699CC" fill-rule="evenodd" style="stroke: #6699CC;stroke-width: 8;stroke-linecap:round;stroke-linejoin:round"/>
			<polygon points="1557,1009 1583,1009 1583,2340 1557,2340" shape-rendering="crispEdges" fill="#6699CC" fill-rule="evenodd" style="stroke: #6699CC;stroke-width: 8;stroke-linecap:round;stroke-linejoin:round"/>
			<polygon points="1609,1010 1635,1010 1635,2340 1609,2340" shape-rendering="crispEdges" fill="#6699CC" fill-rule="evenodd" style="stroke: #6699CC;stroke-width: 8;stroke-linecap:round;stroke-linejoin:round"/>
			<polygon points="1661,1033 1687,1033 1687,2340 1661,2340" shape-rendering="crispEdges" fill="#6699CC" fill-rule="evenodd" style="stroke: #6699CC;stroke-width: 8;stroke-linecap:round;stroke-linejoin:round"/>
			<polygon points="1713,1089 1740,1089 1740,2340 1713,2340" shape-rendering="crispEdges" fill="#6699CC" fill-rule="evenodd" style="stroke: #6699CC;stroke-width: 8;stroke-linecap:round;stroke-linejoin:round"/>
			<polygon points="1766,1129 1792,1129 1792,2340 1766,2340" shape-rendering="crispEdges" fill="#6699CC" fill-rule="evenodd" style="stroke: #6699CC;stroke-width: 8;stroke-linecap:round;stroke-linejoin:round"/>
			<polygon points="1818,1154 1844,1154 1844,2340 1818,2340" shape-rendering="crispEdges" fill="#6699CC" fill-rule="evenodd" style="stroke: #6699CC;stroke-width: 8;stroke-linecap:round;stroke-linejoin:round"/>
			<polygon points="1870,1168 1896,1168 1896,2340 1870,2340" shape-rendering="crispEdges" fill="#6699CC" fill-rule="evenodd" style="stroke: #6699CC;stroke-width: 8;stroke-linecap:round;stroke-linejoin:round"/>
			<polygon points="1922,1177 1948,1177 1948,2340 1922,2340" shape-rendering="crispEdges" fill="#6699CC" fill-rule="evenodd" style="stroke: #6699CC;stroke-width: 8;stroke-linecap:round;stroke-linejoin:round"/>
			<polygon points="1975,1194 2001,1194 2001,2340 1975,2340" shape-rendering="crispEdges" fill="#6699CC" fill-rule="evenodd" style="stroke: #6699CC;stroke-width: 8;stroke-linecap:round;stroke-linejoin:round"/>
			<polygon points="2027,1224 2053,1224 2053,2340 2027,2340" shape-rendering="crispEdges" fill="#6699CC" fill-rule="evenodd" style="stroke: #6699CC;stroke-width: 8;stroke-linecap:round;stroke-linejoin:round"/>
			<polygon points="2079,1277 2105,1277 2105,2340 2079,2340" shape-rendering="crispEdges" fill="#6699CC" fill-rule="evenodd" style="stroke: #6699CC;stroke-width: 8;stroke-linecap:round;stroke-linejoin:round"/>
			<polygon points="2131,1358 2157,1358 2157,2340 2131,2340" shape-rendering="crispEdges" fill="#6699CC" fill-rule="evenodd" style="stroke: #6699CC;stroke-width: 8;stroke-linecap:round;stroke-linejoin:round"/>
			<polygon points="2183,1465 2210,1465 2210,2340 2183,2340" shape-rendering="crispEdges" fill="#6699CC" fill-rule="evenodd" style="stroke: #6699CC;stroke-width: 8;stroke-linecap:round;stroke-linejoin:round"/>
			<polygon points="2236,1610 2262,1610 2262,2340 2236,2340" shape-rendering="crispEdges" fill="#6699CC" fill-rule="evenodd" style="stroke: #6699CC;stroke-width: 8;stroke-linecap:round;stroke-linejoin:round"/>
			<polygon points="2288,1914 2314,1914 2314,2340 2288,2340" shape-rendering="crispEdges" fill="#6699CC" fill-rule="evenodd" style="stroke: #6699CC;stroke-width: 8;stroke-linecap:round;stroke-linejoin:round"/>
			<polygon points="2340,2232 2366,2232 2366,2340 2340,2340" shape-rendering="crispEdges" fill="#6699CC" fill-rule="evenodd" style="stroke: #6699CC;stroke-width: 8;stroke-linecap:round;stroke-linejoin:round"/>
			<polygon points="2392,2340 2418,2340 2418,2529 2392,2529" shape-rendering="crispEdges" fill="#6699CC" fill-rule="evenodd" style="stroke: #6699CC;stroke-width: 8;stroke-linecap:round;stroke-linejoin:round"/>
			<polygon points="2445,2340 2471,2340 2471,2778 2445,2778" shape-rendering="crispEdges" fill="#6699CC" fill-rule="evenodd" style="stroke: #6699CC;stroke-width: 8;stroke-linecap:round;stroke-linejoin:round"/>
			<polygon points="2497,2340 2523,2340 2523,2994 2497,2994" shape-rendering="crispEdges" fill="#6699CC" fill-rule="evenodd" style="stroke: #6699CC;stroke-width: 8;stroke-linecap:round;stroke-linejoin:round"/>
			<polygon points="2549,2340 2575,2340 2575,3198 2549,3198" shape-rendering="crispEdges" fill="#6699CC" fill-rule="evenodd" style="stroke: #6699CC;stroke-width: 8;stroke-linecap:round;stroke-linejoin:round"/>
			<polygon points="2601,2340 2627,2340 2627,3364 2601,3364" shape-rendering="crispEdges" fill="#6699CC" fill-rule="evenodd" style="stroke: #6699CC;stroke-width: 8;stroke-linecap:round;stroke-linejoin:round"/>
			<polygon points="2654,2340 2680,2340 2680,3490 2654,3490" shape-rendering="crispEdges" fill="#6699CC" fill-rule="evenodd" style="stroke: #6699CC;stroke-width: 8;stroke-linecap:round;stroke-linejoin:round"/>
			<polygon points="2706,2340 2732,2340 2732,3558 2706,3558" shape-rendering="crispEdges" fill="#6699CC" fill-rule="evenodd" style="stroke: #6699CC;stroke-width: 8;stroke-linecap:round;stroke-linejoin:round"/>
			<polygon points="2758,2340 2784,2340 2784,3674 2758,3674" shape-rendering="crispEdges" fill="#6699CC" fill-rule="evenodd" style="stroke: #6699CC;stroke-width: 8;stroke-linecap:round;stroke-linejoin:round"/>
			<polygon points="2810,2340 2836,2340 2836,3714 2810,3714" shape-rendering="crispEdges" fill="#6699CC" fill-rule="evenodd" style="stroke: #6699CC;stroke-width: 8;stroke-linecap:round;stroke-linejoin:round"/>
			<polygon points="2862,2340 2889,2340 2889,3770 2862,3770" shape-rendering="crispEdges" fill="#6699CC" fill-rule="evenodd" style="stroke: #6699CC;stroke-width: 8;stroke-linecap:round;stroke-linejoin:round"/>
			<polygon points="2915,2340 2941,2340 2941,3763 2915,3763" shape-rendering="crispEdges" fill="#6699CC" fill-rule="evenodd" style="stroke: #6699CC;stroke-width: 8;stroke-linecap:round;stroke-linejoin:round"/>
			<polygon points="2967,2340 2993,2340 2993,3696 2967,3696" shape-rendering="crispEdges" fill="#6699CC" fill-rule="evenodd" style="stroke: #6699CC;stroke-width: 8;stroke-linecap:round;stroke-linejoin:round"/>
			<polygon points="3019,2340 3045,2340 3045,3583 3019,3583" shape-rendering="crispEdges" fill="#6699CC" fill-rule="evenodd" style="stroke: #6699CC;stroke-width: 8;stroke-linecap:round;stroke-linejoin:round"/>
			<polygon points="3071,2340 3097,2340 3097,3461 3071,3461" shape-rendering="crispEdges" fill="#6699CC" fill-rule="evenodd" style="stroke: #6699CC;stroke-width: 8;stroke-linecap:round;stroke-linejoin:round"/>
			<polygon points="3124,2340 3150,2340 3150,3341 3124,3341" shape-rendering="crispEdges" fill="#6699CC" fill-rule="evenodd" style="stroke: #6699CC;stroke-width: 8;stroke-linecap:round;stroke-linejoin:round"/>
			<polygon points="3176,2340 3202,2340 3202,3226 3176,3226" shape-rendering="crispEdges" fill="#6699CC" fill-rule="evenodd" style="stroke: #6699CC;stroke-width: 8;stroke-linecap:round;stroke-linejoin:round"/>
			<polygon points="3228,2340 3254,2340 3254,3128 3228,3128" shape-rendering="crispEdges" fill="#6699CC" fill-rule="evenodd" style="stroke: #6699CC;stroke-width: 8;stroke-linecap:round;stroke-linejoin:round"/>
			<polygon points="3280,2340 3306,2340 3306,3042 3280,3042" shape-rendering="crispEdges" fill="#6699CC" fill-rule="evenodd" style="stroke: #6699CC;stroke-width: 8;stroke-linecap:round;stroke-linejoin:round"/>
			<polygon points="3332,2340 3359,2340 3359,2973 3332,2973" shape-rendering="crispEdges" fill="#6699CC" fill-rule="evenodd" style="stroke: #6699CC;stroke-width: 8;stroke-linecap:round;stroke-linejoin:round"/>
			<polygon points="3385,2340 3411,2340 3411,2916 3385,2916" shape-rendering="crispEdges" fill="#6699CC" fill-rule="evenodd" style="stroke: #6699CC;stroke-width: 8;stroke-linecap:round;stroke-linejoin:round"/>
			<polygon points="3437,2340 3463,2340 3463,2870 3437,2870" shape-rendering="crispEdges" fill="#6699CC" fill-rule="evenodd" style="stroke: #6699CC;stroke-width: 8;stroke-linecap:round;stroke-linejoin:round"/>
			<polygon points="3489,2340 3515,2340 3515,2832 3489,2832" shape-rendering="crispEdges" fill="#6699CC" fill-rule="evenodd" style="stroke: #6699CC;stroke-width: 8;stroke-linecap:round;stroke-linejoin:round"/>
			<polygon points="3541,2340 3567,2340 3567,2799 3541,2799" shape-rendering="crispEdges" fill="#6699CC" fill-rule="evenodd" style="stroke: #6699CC;stroke-width: 8;stroke-linecap:round;stroke-linejoin:round"/>
			<polygon points="3594,2340 3620,2340 3620,2766 3594,2766" shape-rendering="crispEdges" fill="#6699CC" fill-rule="evenodd" style="stroke: #6699CC;stroke-width: 8;stroke-linecap:round;stroke-linejoin:round"/>
			<polygon points="3646,2340 3672,2340 3672,2730 3646,2730" shape-rendering="crispEdges" fill="#6699CC" fill-rule="evenodd" style="stroke: #6699CC;stroke-width: 8;stroke-linecap:round;stroke-linejoin:round"/>
			<polygon points="3698,2340 3724,2340 3724,2694 3698,2694" shape-rendering="crispEdges" fill="#6699CC" fill-rule="evenodd" style="stroke: #6699CC;stroke-width: 8;stroke-linecap:round;stroke-linejoin:round"/>
			<polygon points="3750,2340 3776,2340 3776,2652 3750,2652" shape-rendering="crispEdges" fill="#6699CC" fill-rule="evenodd" style="stroke: #6699CC;stroke-width: 8;stroke-linecap:round;stroke-linejoin:round"/>
			<polygon points="3802,2340 3829,2340 3829,2609 3802,2609" shape-rendering="crispEdges" fill="#6699CC" fill-rule="evenodd" style="stroke: #6699CC;stroke-width: 8;stroke-linecap:round;stroke-linejoin:round"/>
			<polygon points="3855,2340 3881,2340 3881,2574 3855,2574" shape-rendering="crispEdges" fill="#6699CC" fill-rule="evenodd" style="stroke: #6699CC;stroke-width: 8;stroke-linecap:round;stroke-linejoin:round"/>
			<polygon points="3907,2340 3933,2340 3933,2546 3907,2546" shape-rendering="crispEdges" fill="#6699CC" fill-rule="evenodd" style="stroke: #6699CC;stroke-width: 8;stroke-linecap:round;stroke-linejoin:round"/>
			<polygon points="3959,2340 3985,2340 3985,2526 3959,2526" shape-rendering="crispEdges" fill="#6699CC" fill-rule="evenodd" style="stroke: #6699CC;stroke-width: 8;stroke-linecap:round;stroke-linejoin:round"/>
			<polygon points="4011,2340 4037,2340 4037,2511 4011,2511" shape-rendering="crispEdges" fill="#6699CC" fill-rule="evenodd" style="stroke: #6699CC;stroke-width: 8;stroke-linecap:round;stroke-linejoin:round"/>
			<polygon points="4064,2340 4090,2340 4090,2496 4064,2496" shape-rendering="crispEdges" fill="#6699CC" fill-rule="evenodd" style="stroke: #6699CC;stroke-width: 8;stroke-linecap:round;stroke-linejoin:round"/>
			<polygon points="4116,2340 4142,2340 4142,2480 4116,2480" shape-rendering="crispEdges" fill="#6699CC" fill-rule="evenodd" style="stroke: #6699CC;stroke-width: 8;stroke-linecap:round;stroke-linejoin:round"/>
			<polygon points="4168,2340 4194,2340 4194,2463 4168,2463" shape-rendering="crispEdges" fill="#6699CC" fill-rule="evenodd" style="stroke: #6699CC;stroke-width: 8;stroke-linecap:round;stroke-linejoin:round"/>
			<polygon points="4220,2340 4246,2340 4246,2449 4220,2449" shape-rendering="crispEdges" fill="#6699CC" fill-rule="evenodd" style="stroke: #6699CC;stroke-width: 8;stroke-linecap:round;stroke-linejoin:round"/>
			<polygon points="4273,2340 4299,2340 4299,2440 4273,2440" shape-rendering="crispEdges" fill="#6699CC" fill-rule="evenodd" style="stroke: #6699CC;stroke-width: 8;stroke-linecap:round;stroke-linejoin:round"/>
			<polygon points="4325,2340 4351,2340 4351,2426 4325,2426" shape-rendering="crispEdges" fill="#6699CC" fill-rule="evenodd" style="stroke: #6699CC;stroke-width: 8;stroke-linecap:round;stroke-linejoin:round"/>
			<polygon points="4377,2340 4403,2340 4403,2414 4377,2414" shape-rendering="crispEdges" fill="#6699CC" fill-rule="evenodd" style="stroke: #6699CC;stroke-width: 8;stroke-linecap:round;stroke-linejoin:round"/>
			<polygon points="4429,2340 4455,2340 4455,2403 4429,2403" shape-rendering="crispEdges" fill="#6699CC" fill-rule="evenodd" style="stroke: #6699CC;stroke-width: 8;stroke-linecap:round;stroke-linejoin:round"/>
			<polygon points="4481,2340 4508,2340 4508,2395 4481,2395" shape-rendering="crispEdges" fill="#6699CC" fill-rule="evenodd" style="stroke: #6699CC;stroke-width: 8;stroke-linecap:round;stroke-linejoin:round"/>
			<polygon points="4534,2340 4560,2340 4560,2388 4534,2388" shape-rendering="crispEdges" fill="#6699CC" fill-rule="evenodd" style="stroke: #6699CC;stroke-width: 8;stroke-linecap:round;stroke-linejoin:round"/>
			<polygon points="4586,2340 4612,2340 4612,2382 4586,2382" shape-rendering="crispEdges" fill="#6699CC" fill-rule="evenodd" style="stroke: #6699CC;stroke-width: 8;stroke-linecap:round;stroke-linejoin:round"/>
			<polygon points="4638,2340 4664,2340 4664,2379 4638,2379" shape-rendering="crispEdges" fill="#6699CC" fill-rule="evenodd" style="stroke: #6699CC;stroke-width: 8;stroke-linecap:round;stroke-linejoin:round"/>
			<polygon points="4690,2340 4716,2340 4716,2377 4690,2377" shape-rendering="crispEdges" fill="#6699CC" fill-rule="evenodd" style="stroke: #6699CC;stroke-width: 8;stroke-linecap:round;stroke-linejoin:round"/>
			<polygon points="4743,2340 4769,2340 4769,2377 4743,2377" shape-rendering="crispEdges" fill="#6699CC" fill-rule="evenodd" style="stroke: #6699CC;stroke-width: 8;stroke-linecap:round;stroke-linejoin:round"/>
			<polygon points="4795,2340 4821,2340 4821,2381 4795,2381" shape-rendering="crispEdges" fill="#6699CC" fill-rule="evenodd" style="stroke: #6699CC;stroke-width: 8;stroke-linecap:round;stroke-linejoin:round"/>
			<polygon points="4847,2340 4873,2340 4873,2388 4847,2388" shape-rendering="crispEdges" fill="#6699CC" fill-rule="evenodd" style="stroke: #6699CC;stroke-width: 8;stroke-linecap:round;stroke-linejoin:round"/>
			<polygon points="4899,2340 4925,2340 4925,2393 4899,2393" shape-rendering="crispEdges" fill="#6699CC" fill-rule="evenodd" style="stroke: #6699CC;stroke-width: 8;stroke-linecap:round;stroke-linejoin:round"/>
			<polygon points="4951,2340 4978,2340 4978,2398 4951,2398" shape-rendering="crispEdges" fill="#6699CC" fill-rule="evenodd" style="stroke: #6699CC;stroke-width: 8;stroke-linecap:round;stroke-linejoin:round"/>
			<polygon points="5004,2340 5030,2340 5030,2399 5004,2399" shape-rendering="crispEdges" fill="#6699CC" fill-rule="evenodd" style="stroke: #6699CC;stroke-width: 8;stroke-linecap:round;stroke-linejoin:round"/>
			<polygon points="5056,2340 5082,2340 5082,2398 5056,2398" shape-rendering="crispEdges" fill="#6699CC" fill-rule="evenodd" style="stroke: #6699CC;stroke-width: 8;stroke-linecap:round;stroke-linejoin:round"/>
			<polygon points="5108,2340 5134,2340 5134,2394 5108,2394" shape-rendering="crispEdges" fill="#6699CC" fill-rule="evenodd" style="stroke: #6699CC;stroke-width: 8;stroke-linecap:round;stroke-linejoin:round"/>
			<polygon points="5160,2340 5186,2340 5186,2391 5160,2391" shape-rendering="crispEdges" fill="#6699CC" fill-rule="evenodd" style="stroke: #6699CC;stroke-width: 8;stroke-linecap:round;stroke-linejoin:round"/>
			<polygon points="5213,2340 5239,2340 5239,2389 5213,2389" shape-rendering="crispEdges" fill="#6699CC" fill-rule="evenodd" style="stroke: #6699CC;stroke-width: 8;stroke-linecap:round;stroke-linejoin:round"/>
			<polygon points="5265,2340 5291,2340 5291,2387 5265,2387" shape-rendering="crispEdges" fill="#6699CC" fill-rule="evenodd" style="stroke: #6699CC;stroke-width: 8;stroke-linecap:round;stroke-linejoin:round"/>
			<polygon points="5317,2340 5343,2340 5343,2387 5317,2387" shape-rendering="crispEdges" fill="#6699CC" fill-rule="evenodd" style="stroke: #6699CC;stroke-width: 8;stroke-linecap:round;stroke-linejoin:round"/>
			<polygon points="5369,2340 5395,2340 5395,2387 5369,2387" shape-rendering="crispEdges" fill="#6699CC" fill-rule="evenodd" style="stroke: #6699CC;stroke-width: 8;stroke-linecap:round;stroke-linejoin:round"/>
			<polygon points="5421,2340 5448,2340 5448,2387 5421,2387" shape-rendering="crispEdges" fill="#6699CC" fill-rule="evenodd" style="stroke: #6699CC;stroke-width: 8;stroke-linecap:round;stroke-linejoin:round"/>
			<polygon points="5474,2340 5500,2340 5500,2387 5474,2387" shape-rendering="crispEdges" fill="#6699CC" fill-rule="evenodd" style="stroke: #6699CC;stroke-width: 8;stroke-linecap:round;stroke-linejoin:round"/>
			<polygon points="5526,2340 5552,2340 5552,2387 5526,2387" shape-rendering="crispEdges" fill="#6699CC" fill-rule="evenodd" style="stroke: #6699CC;stroke-width: 8;stroke-linecap:round;stroke-linejoin:round"/>
		</g>
		<polyline points="1152,4108 5539,4108" style="stroke: black;stroke-width: 13;stroke-linecap:square;stroke-linejoin:round" fill="none"/>
		<polyline points="1152,2340 5539,2340" style="stroke: black;stroke-width: 13;stroke-linecap:square;stroke-linejoin:round" fill="none"/>
		<polyline points="1962,4108 1962,4142" style="stroke: black;stroke-width: 13;stroke-linecap:butt;stroke-linejoin:round" fill="none"/>
		<polyline points="3581,4108 3581,4142" style="stroke: black;stroke-width: 13;stroke-linecap:butt;stroke-linejoin:round" fill="none"/>
		<polyline points="5095,4108 5095,4142" style="stroke: black;stroke-width: 13;stroke-linecap:butt;stroke-linejoin:round" fill="none"/>
		<polyline points="1152,4108 1152,4177" style="stroke: black;stroke-width: 13;stroke-linecap:butt;stroke-linejoin:round" fill="none"/>
		<polyline points="2771,4108 2771,4177" style="stroke: black;stroke-width: 13;stroke-linecap:butt;stroke-linejoin:round" fill="none"/>
		<polyline points="4286,4108 4286,4177" style="stroke: black;stroke-width: 13;stroke-linecap:butt;stroke-linejoin:round" fill="none"/>
		<polyline points="1152,4108 1152,572" style="stroke: black;stroke-width: 13;stroke-linecap:square;stroke-linejoin:round" fill="none"/>
		<polyline points="1152,3887 1118,3887" style="stroke: black;stroke-width: 13;stroke-linecap:butt;stroke-linejoin:round" fill="none"/>
		<polyline points="1152,3445 1118,3445" style="stroke: black;stroke-width: 13;stroke-linecap:butt;stroke-linejoin:round" fill="none"/>
		<polyline points="1152,3003 1118,3003" style="stroke: black;stroke-width: 13;stroke-linecap:butt;stroke-linejoin:round" fill="none"/>
		<polyline points="1152,2561 1118,2561" style="stroke: black;stroke-width: 13;stroke-linecap:butt;stroke-linejoin:round" fill="none"/>
		<polyline points="1152,2119 1118,2119" style="stroke: black;stroke-width: 13;stroke-linecap:butt;stroke-linejoin:round" fill="none"/>
		<polyline points="1152,1677 1118,1677" style="stroke: black;stroke-width: 13;stroke-linecap:butt;stroke-linejoin:round" fill="none"/>
		<polyline points="1152,1235 1118,1235" style="stroke: black;stroke-width: 13;stroke-linecap:butt;stroke-linejoin:round" fill="none"/>
		<polyline points="1152,793 1118,793" style="stroke: black;stroke-width: 13;stroke-linecap:butt;stroke-linejoin:round" fill="none"/>
		<polyline points="1152,4108 1083,4108" style="stroke: black;stroke-width: 13;stroke-linecap:butt;stroke-linejoin:round" fill="none"/>
		<polyline points="1152,3666 1083,3666" style="stroke: black;stroke-width: 13;stroke-linecap:butt;stroke-linejoin:round" fill="none"/>
		<polyline points="1152,3224 1083,3224" style="stroke: black;stroke-width: 13;stroke-linecap:butt;stroke-linejoin:round" fill="none"/>
		<polyline points="1152,2782 1083,2782" style="stroke: black;stroke-width: 13;stroke-linecap:butt;stroke-linejoin:round" fill="none"/>
		<polyline points="1152,2340 1083,2340" style="stroke: black;stroke-width: 13;stroke-linecap:butt;stroke-linejoin:round" fill="none"/>
		<polyline points="1152,1898 1083,1898" style="stroke: black;stroke-width: 13;stroke-linecap:butt;stroke-linejoin:round" fill="none"/>
		<polyline points="1152,1456 1083,1456" style="stroke: black;stroke-width: 13;stroke-linecap:butt;stroke-linejoin:round" fill="none"/>
		<polyline points="1152,1014 1083,1014" style="stroke: black;stroke-width: 13;stroke-linecap:butt;stroke-linejoin:round" fill="none"/>
		<polyline points="1152,572 1083,572" style="stroke: black;stroke-width: 13;stroke-linecap:butt;stroke-linejoin:round" fill="none"/>
		<text x="975" dominant-baseline="auto" y="4326" fill="black" font-family="宋体,'MS PGothic',SimSun" font-size="117" font-weight="400">
			<tspan x="975" style="white-space:pre;font-kerning:none" xml:space="preserve">Jan 23</tspan>
		</text>
		<text x="2594" dominant-baseline="auto" y="4326" fill="black" font-family="宋体,'MS PGothic',SimSun" font-size="117" font-weight="400">
			<tspan x="2594" style="white-space:pre;font-kerning:none" xml:space="preserve">Feb 23</tspan>
		</text>
		<text x="4109" dominant-baseline="auto" y="4326" fill="black" font-family="宋体,'MS PGothic',SimSun" font-size="117" font-weight="400">
			<tspan x="4109" style="white-space:pre;font-kerning:none" xml:space="preserve">Mar 23</tspan>
		</text>
		<text x="917" dominant-baseline="auto" y="4156" fill="black" font-family="宋体,'MS PGothic',SimSun" font-size="117" font-weight="400">
			<tspan x="917" style="font-kerning:none">−8</tspan>
		</text>
		<text x="917" dominant-baseline="auto" y="3714" fill="black" font-family="宋体,'MS PGothic',SimSun" font-size="117" font-weight="400">
			<tspan x="917" style="font-kerning:none">−6</tspan>
		</text>
		<text x="917" dominant-baseline="auto" y="3272" fill="black" font-family="宋体,'MS PGothic',SimSun" font-size="117" font-weight="400">
			<tspan x="917" style="font-kerning:none">−4</tspan>
		</text>
		<text x="917" dominant-baseline="auto" y="2830" fill="black" font-family="宋体,'MS PGothic',SimSun" font-size="117" font-weight="400">
			<tspan x="917" style="font-kerning:none">−2</tspan>
		</text>
		<text x="976" dominant-baseline="auto" y="2388" fill="black" font-family="宋体,'MS PGothic',SimSun" font-size="117" font-weight="400">
			<tspan x="976" style="font-kerning:none">0</tspan>
		</text>
		<text x="976" dominant-baseline="auto" y="1946" fill="black" font-family="宋体,'MS PGothic',SimSun" font-size="117" font-weight="400">
			<tspan x="976" style="font-kerning:none">2</tspan>
		</text>
		<text x="976" dominant-baseline="auto" y="1504" fill="black" font-family="宋体,'MS PGothic',SimSun" font-size="117" font-weight="400">
			<tspan x="976" style="font-kerning:none">4</tspan>
		</text>
		<text x="976" dominant-baseline="auto" y="1062" fill="black" font-family="宋体,'MS PGothic',SimSun" font-size="117" font-weight="400">
			<tspan x="976" style="font-kerning:none">6</tspan>
		</text>
		<text x="976" dominant-baseline="auto" y="620" fill="black" font-family="宋体,'MS PGothic',SimSun" font-size="117" font-weight="400">
			<tspan x="976" style="font-kerning:none">8</tspan>
		</text>
		<text x="2120" dominant-baseline="auto" y="4485" fill="black" font-family="宋体,'MS PGothic',SimSun" font-size="100" font-weight="400">
			<tspan x="2120" style="white-space:pre;font-kerning:none" xml:space="preserve">Fig. 2. Hubei: Change in Daily Death(HP-Filtered)</tspan>
		</text>
		<polygon points="3242,753 3470,753 3470,864 3242,864" shape-rendering="crispEdges" fill="#6699CC" fill-rule="evenodd" style="stroke: #6699CC;stroke-width: 8;stroke-linecap:round;stroke-linejoin:round"/>
		<text x="3473" dominant-baseline="auto" y="851" fill="black" font-family="宋体,'MS PGothic',SimSun" font-size="117" font-weight="400">
			<tspan x="3473" style="white-space:pre;font-kerning:none" xml:space="preserve"> Change in Daily Death(HP-Filtered)</tspan>
		</text>
	</svg>
</svg>

